/* XPM */
static char *result[] = {
/* columns rows colors chars-per-pixel */
"32 32 219 2 ",
"   c gray2",
".  c #060606",
"X  c #070707",
"o  c gray1",
"O  c #020202",
"+  c #010101",
"@  c black",
"#  c #040404",
"$  c gray3",
"%  c #141313",
"&  c #161515",
"*  c #131313",
"=  c #080909",
"-  c gray6",
";  c #101010",
":  c gray5",
">  c #1B1C1C",
",  c #525559",
"<  c #5D6167",
"1  c #5D5D5E",
"2  c gray16",
"3  c #646464",
"4  c #747474",
"5  c gray43",
"6  c gray45",
"7  c #6F6F6F",
"8  c #686868",
"9  c gray10",
"0  c #525458",
"q  c #1B2B48",
"w  c #263A5E",
"e  c #6C6F74",
"r  c #7A7A79",
"t  c gray65",
"y  c #C6C6C6",
"u  c gray64",
"i  c gray76",
"p  c gray63",
"a  c gray",
"s  c #6A6A6A",
"d  c gray8",
"f  c #5D5F63",
"g  c #27344C",
"h  c #5D636C",
"j  c #7C7C7D",
"k  c #A7A7A7",
"l  c gray71",
"z  c #CECECE",
"x  c gray78",
"c  c #C3C3C3",
"v  c gray46",
"b  c #111111",
"n  c #0C0C0C",
"m  c #666667",
"M  c #626467",
"N  c #7E7E7E",
"B  c #8D8D8D",
"V  c #ACADAD",
"C  c #ABABAC",
"Z  c #A4A4A4",
"A  c #979797",
"S  c #8F8F90",
"D  c #939393",
"F  c #2A2A2A",
"G  c #565757",
"H  c #1D1E1E",
"J  c #0E0E0E",
"K  c #515151",
"L  c #292928",
"P  c gray44",
"I  c #AEADAD",
"U  c #949390",
"Y  c #8E8C89",
"T  c #8D8C89",
"R  c #8B8986",
"E  c #898784",
"W  c gray42",
"Q  c #6F7070",
"!  c #8B9392",
"~  c #636464",
"^  c #727272",
"/  c gray70",
"(  c #B9B7B4",
")  c #E5DBC6",
"_  c #E8DDC7",
"`  c #ECDFC6",
"'  c #EEE2CA",
"]  c #DBD1BF",
"[  c #787674",
"{  c gray17",
"}  c #6F7171",
"|  c #929B9A",
" . c #6E6F6F",
".. c #100F0F",
"X. c #BBB9B5",
"o. c #EFE4CF",
"O. c #D2CCC1",
"+. c #F0DDBA",
"@. c #F7E9CD",
"#. c #C3C0BA",
"$. c #717171",
"%. c gray12",
"&. c #6D6E6E",
"*. c #929A99",
"=. c #C3C1BE",
"-. c #F0E6D1",
";. c #EEDBB6",
":. c #F1DEBA",
">. c #C2BEB7",
",. c gray11",
"<. c #6C6D6D",
"1. c #787879",
"2. c #B6B5B2",
"3. c #E8DDC8",
"4. c #EEE3CE",
"5. c #F3E6CD",
"6. c #F3E6CC",
"7. c #777673",
"8. c #272727",
"9. c #939B9A",
"0. c #656565",
"q. c #747473",
"w. c gray48",
"e. c #818080",
"r. c #92918E",
"t. c #AFADAA",
"y. c #B3B2AF",
"u. c #92908D",
"i. c #787877",
"p. c #6B6F73",
"a. c #7E888C",
"s. c #616569",
"d. c #1B1B1C",
"f. c #585858",
"g. c #98999A",
"h. c #9DA0A5",
"j. c #8A8B8C",
"k. c #808080",
"l. c #A8A8A9",
"z. c #9C9D9D",
"x. c gray58",
"c. c gray59",
"v. c #A9A9A9",
"b. c #7D7E7F",
"n. c #61656E",
"m. c #29364C",
"M. c #29364A",
"N. c #27344A",
"B. c #494B4E",
"V. c #0D0D0C",
"C. c #686B70",
"Z. c #3C4E6E",
"A. c #6F7277",
"S. c #7E7E7D",
"D. c gray67",
"F. c gray56",
"G. c #868686",
"H. c gray66",
"J. c #76797F",
"K. c #2F4264",
"L. c #5A6069",
"P. c #918C6C",
"I. c #666664",
"U. c #1B1C1D",
"Y. c #5C5C5D",
"T. c #676A6F",
"R. c #5E6470",
"E. c #737476",
"W. c #797979",
"Q. c #838383",
"!. c #8B8B8B",
"~. c #8B8B8A",
"^. c #858586",
"/. c #585E69",
"(. c #263A5D",
"). c #313D50",
"_. c #555758",
"`. c #0E0E0D",
"'. c #151515",
"]. c #5E6064",
"[. c #1B2B49",
"{. c #1A315A",
"}. c #6B6E74",
"|. c #7B7B7C",
" X c #8A8D93",
".X c #7F8389",
"XX c #89898A",
"oX c #909091",
"OX c #989BA0",
"+X c #717172",
"@X c #252626",
"#X c #51545A",
"$X c #515358",
"%X c #161617",
"&X c gray7",
"*X c #192A48",
"=X c #182F59",
"-X c #606369",
";X c #6E7075",
":X c #34486E",
">X c #32476C",
",X c #727479",
"<X c #72757A",
"1X c #415374",
"2X c #676A70",
"3X c #202020",
"4X c #131212",
"5X c #10100F",
"6X c #191A1A",
"7X c #535559",
"8X c #222323",
"9X c #606161",
"0X c #7F8289",
"qX c #6C6C6D",
"wX c #81848A",
"eX c #8A8B8B",
"rX c #0F0F0E",
"tX c #171716",
"yX c white",
/* pixels */
"  . X X X X X X X X X X X . o O O O O O O O O O O O O O O O + @ ",
"o o . . . . . X X X . X X X .         # # # # # # # # # # # # O ",
"#   . o o o o . X . #   . . .   #     O O + + + + O o o o o o # ",
"o   .   # # #   . .   o o o o o o O + + + O O O O O #   . .   o ",
"@ + o   o o o o o o . . . . .   o O O O             # . X X X . ",
"@ @ + # #   . . . . . . . .   # o o o #             # # . X . . ",
"@ @ @ + o . X X X $ % & * = - ; ; ; ; : O + O O O O o o #   o o ",
"@ @ @ O # X X X $ > , < 1 2 3 4 5 6 7 8 9 O + O O O o O #   # # ",
"@ @ + # # . X . % 0 q w e r t y u i p a s - o       o + + + + + ",
"@ + O #     .   d f g h j k l z l x u c v b n . # .   + @ @ @ @ ",
"O # # O + + + + ; m M v N B V C Z A S D 7 F G H X . . o + + + @ ",
"  o O @ @ @ @ @ J K L P Z I U Y T R E r W Q ! ~ b     # # # # O ",
"  # # O + + + + # - d ^ / ( ) _ ` ' ] [ { } |  ...+ + + + O o # ",
"O + O   .         # * ^ / X.o.O.+.@.#.$.%.&.*.&.J @ @ @ @ + o   ",
"O O o . X .     o + J 3 u =.-.O.;.:.>.$.,.<.*.&.J @ + + O # #   ",
"  # #     O O + @ o b F 1.2.3.4.5.6.] 7.8.Q 9. .- o # # # O + + ",
". o o o o O + + o ,.0.q.w.e.r.t.y.t.u.i.W p.a.s.d.o + + + @ @ @ ",
"  # # # # # # o J f.g.h.j.k.l.z.x.c.v.b.n.m.M.N.B.V.@ @ @ @ @ @ ",
"o o o o o o O O   8.C.Z.A.S.u D.F.G.H.J.K.L.P.I.U.  O + + + @ @ ",
"    . . .   o # b Y.T.R.E.W.Q.Q.k.!.~.^./.(.)._.`.+ # # # # O @ ",
"# . X X X .     '.].[.{.}.|. X.XXXoXOX+X@X#X$X%X+ @ + O o   # + ",
"    . . . . o O &X0 *X=X-X;X:X>X,X<X1X2X3X4X5Xo + + O O # O + @ ",
"o o o o o     # # 6X7X#X8X9X.X0XqXqXwXeXf.- #       # # # O O + ",
"# # #   # # O + +   ; rXo : & tXd '.9 9 *   o . .   O O O #     ",
"+ O o   o o O O o     # O + + # . . . . . # # # O + + + O o   . ",
"+ O o               . .   #   X X X X X . o o o O + O # # # O o ",
"# #     o   . . o o o # O O   . . X X X X .   # # # # O O O O # ",
"o o   o O o o . . .   o O O o o o . X . . .   o o o o O O     o ",
"# . .   # # #   . X X # # # # # #     o o o o # # #     #     # ",
"o . . o o o o o o .   O + + + + + O O # # # # o o o . . o o o o ",
"+ #   # # # # # # # o O O O O O O O O o o o o # # #     # # # # ",
"@ + O O O O O O O o #                       .   o O O O O O O O "
};
