/* XPM */
static char *result[] = {
/* columns rows colors chars-per-pixel */
"32 32 57 1 ",
"  c black",
". c #05263B",
"X c #463930",
"o c #1D5B07",
"O c #0A4164",
"+ c #4B8835",
"@ c #055888",
"# c #20579E",
"$ c #0570B2",
"% c #0471B4",
"& c #0572B5",
"* c #0673B6",
"= c #0975B9",
"- c #0A76BA",
"; c #0D77BA",
": c #0E78BB",
"> c #0979BE",
", c #0A7ABF",
"< c #0E78BC",
"1 c #0F78BC",
"2 c #0F7ABE",
"3 c #0B7CBC",
"4 c #1179BD",
"5 c #1279BE",
"6 c #107ABE",
"7 c #117ABE",
"8 c #127ABF",
"9 c #137ABF",
"0 c #006ECD",
"q c #0B7CC1",
"w c #0C7CC1",
"e c #0C7FC5",
"r c #0064D5",
"t c #3A77C6",
"y c #0284AE",
"u c #2981A2",
"i c #1381C2",
"p c #118BD4",
"a c #128CD5",
"s c #128ED6",
"d c #019FD3",
"f c #1492DC",
"g c #1694DE",
"h c #3FB3D9",
"j c #51ABCC",
"k c #59BEE0",
"l c #A19E9E",
"z c #97A8B4",
"x c #ACF58A",
"c c #A6B7C5",
"v c #EBDDC8",
"b c #FDE3CB",
"n c #FDEEDE",
"m c #CAE5EF",
"M c #F3F3F3",
"N c #FAF8F8",
"B c #FAFAF8",
/* pixels */
"................................",
"...7OOO.OOOOBBai33BB3f.@@@@OOO=.",
"..<OOOO.OOOOBBBBBBBB3f.@@@OOOO=.",
".7OOOOO.OOOOBBBNNBBB3f.2OOOOOO=.",
".OOOOOO.OOOOBBBBBBBB3f.OOOOOO6-.",
".111111.1111BBBBBBBBfp.;1111111.",
"............BBBBBBBB............",
".OOO:$;OOOOOBBBBBBBB@@@@@w2..OO.",
".OOOO.1OOOOxBBBBBBBBxOOOOOO..OO.",
".OOOO.1OOOxxxxBBBBxxxxOOOOO-.OO.",
".===O.1OOOxxxxxxxxxxxxOOOOO6.OO.",
"..........d+xxx++xx+xd.......OO.",
".f.499995.v++++++++++v.ii>>>.OO.",
".f.OO8O8OOv++++oo+++yv.i3333.@@.",
".f.OOOOOOOvk+++oo+++ym.i3333.@@.",
".f.OOOOOOOvdd++++++dhm.i3333.@@.",
"..........vuuddddddjjm.i3333....",
".OOOOOO-@.v#00000000#m.sffff.qq.",
".OOOOOO6<.v#rrrrrrrr#c.......%%.",
".OOOOOOOO.vtrttttttrtz.:OOOOOOO.",
"..........ftrtO.OOtrt*.OOOOOOOO.",
".33.@@@OO.ftrtO.qqtrt&.;1111111.",
".33.OOOOO.ftttO...ttt...........",
".33.@OOOO.fObnO.OOnbO2w@@@@@@@@.",
".33.@OOOO.fObnO..OnbO@@OO@@@OO7.",
".33.OOOOO.fObnO..OnbOOOOOOOOO<..",
".33.OOOOO.fObnO..OnbOOOOOOOO7...",
".33.OOOOO...bn....nb............",
"..3.@OOOO.1-MM..-OMMO@@@@.f33ge.",
".,3.@@OO@.1OlXOOOOXlOOO@@.f3333.",
".@,.@@@OO.    OOOO    O@@.f3333.",
"................................"
};
