/* XPM */
static char *result[] = {
/* columns rows colors chars-per-pixel */
"32 32 57 1 ",
"  c black",
". c #05263B",
"X c #463930",
"o c #0A4164",
"O c #055888",
"+ c #20579E",
"@ c #0570B2",
"# c #0471B4",
"$ c #0572B5",
"% c #0673B6",
"& c #0975B9",
"* c #0A76BA",
"= c #0D77BA",
"- c #0E78BB",
"; c #0979BE",
": c #0A7ABF",
"> c #0E78BC",
", c #0F78BC",
"< c #0F7ABE",
"1 c #0B7CBC",
"2 c #1179BD",
"3 c #1279BE",
"4 c #107ABE",
"5 c #117ABE",
"6 c #127ABF",
"7 c #137ABF",
"8 c #006ECD",
"9 c #0B7CC1",
"0 c #0C7CC1",
"q c #0C7FC5",
"w c #0064D5",
"e c #3A77C6",
"r c #0284AE",
"t c #2981A2",
"y c #12A2A2",
"u c #1381C2",
"i c #118BD4",
"p c #128CD5",
"a c #128ED6",
"s c #019FD3",
"d c #1492DC",
"f c #1694DE",
"g c #3FB3D9",
"h c #51ABCC",
"j c #59BEE0",
"k c #A19E9E",
"l c #97A8B4",
"z c #ACF58A",
"x c #A6B7C5",
"c c #EBDDC8",
"v c #FEE2C9",
"b c #FDE3CB",
"n c #FDEEDE",
"m c #CAE5EF",
"M c #F3F3F3",
"N c #FAF8F8",
"B c #FAFAF8",
/* pixels */
"................................",
"...5ooo.ooooBBpu11BB1d.OOOOooo&.",
"..>oooo.ooooBBBBBBBB1d.OOOoooo&.",
".5ooooo.ooooBvNNNNvB1d.<oooooo&.",
".oooooo.oooovvvvvvvv1d.oooooo4*.",
".,,,,,,.,,,,vv vv vvdi.=,,,,,,,.",
"............vvvvvvvv............",
".ooo-@=ooooovvvvvvvvOOOOO0<..oo.",
".oooo.,oooozBBvvvvBBzoooooo..oo.",
".oooo.,ooozzzBNNNNBzzzooooo*.oo.",
".&&&o.,ooozzzzsssszzzzooooo4.oo.",
"..........szyssssssszs.......oo.",
".d.277773.czyssssssszc.uu;;;.oo.",
".d.oo6o6oocjssssssssrc.u1111.OO.",
".d.ooooooomjssssssssrc.u1111.OO.",
".d.ooooooomsssssssssgc.u1111.OO.",
"..........mttsssssshhc.u1111....",
".oooooo*O.m+88888888+c.adddd.99.",
".oooooo4>.x+wwwwwwww+c.......##.",
".oooooooo.leweeeeeewec.-ooooooo.",
"..........deweo.ooewe%.oooooooo.",
".11.OOOoo.deweo.99ewe$.=,,,,,,,.",
".11.ooooo.deeeo...eee...........",
".11.Ooooo.dobno.oonbo<0OOOOOOOO.",
".11.Ooooo.dobno..onboOOooOOOoo5.",
".11.ooooo.dobno..onbooooooooo>..",
".11.ooooo.dobno..onboooooooo5...",
".11.ooooo...bn....nb............",
"..1.Ooooo.,*MM..*oMMoOOOO.d11fq.",
".:1.OOooO.,okXooooXkoooOO.d1111.",
".O:.OOOoo.    oooo    oOO.d1111.",
"................................"
};
