/* XPM */
static char *result[] = {
/* columns rows colors chars-per-pixel */
"32 32 178 2 ",
"   c black",
".  c #090909",
"X  c #06231E",
"o  c #05263B",
"O  c #463930",
"+  c #1D5B07",
"@  c #003E7C",
"#  c #144B5F",
"$  c #0A4164",
"%  c #004F62",
"&  c #096578",
"*  c #446472",
"=  c #4B8835",
"-  c #055888",
";  c #20579E",
":  c #03799C",
">  c #0570B2",
",  c #0471B4",
"<  c #0572B5",
"1  c #0673B6",
"2  c #0975B9",
"3  c #0A76BA",
"4  c #0D77BA",
"5  c #0E78BB",
"6  c #0979BE",
"7  c #0A7ABF",
"8  c #0E78BC",
"9  c #0F78BC",
"0  c #0E79BD",
"q  c #0F7ABE",
"w  c #0B7CBC",
"e  c #1179BD",
"r  c #107ABE",
"t  c #117ABE",
"y  c #127ABF",
"u  c #137ABF",
"i  c #006CCA",
"p  c #006DCD",
"a  c #006FCC",
"s  c #006ECD",
"d  c #006FCE",
"f  c #0B7CC1",
"g  c #0C7CC1",
"h  c #0C7FC5",
"j  c #0070CD",
"k  c #0062D5",
"l  c #0162D5",
"z  c #0063D5",
"x  c #0163D5",
"c  c #0262D4",
"v  c #0363D5",
"b  c #0064D4",
"n  c #0164D4",
"m  c #0064D5",
"M  c #0164D8",
"N  c #3A77C6",
"B  c #0284AE",
"V  c #0885B0",
"C  c #2981A2",
"Z  c #12A2A2",
"A  c #12A3A2",
"S  c #448396",
"D  c #628EA1",
"F  c #1381C2",
"G  c #0B9BCD",
"H  c #118BD4",
"J  c #128CD5",
"K  c #128ED6",
"L  c #009DD2",
"P  c #009ED2",
"I  c #009FD2",
"U  c #009ED3",
"Y  c #019ED3",
"T  c #009FD3",
"R  c #019FD3",
"E  c #009ED4",
"W  c #009FD4",
"Q  c #019FD4",
"!  c #019FD5",
"~  c #1492DC",
"^  c #1694DE",
"/  c #00A0D2",
"(  c #02A0D3",
")  c #04A0D2",
"_  c #00A0D4",
"`  c #01A0D6",
"'  c #33A7CE",
"]  c #3FB3D9",
"[  c #51ABCC",
"{  c #4DAED1",
"}  c #59BEE0",
"|  c #5ABFE3",
" . c #5FC5CC",
".. c #A19E9E",
"X. c #97A8B4",
"o. c #A3F580",
"O. c #ACF58A",
"+. c #BDE9AB",
"@. c #A6B7C5",
"#. c #E8D8CA",
"$. c #EBDDC8",
"%. c #F7DFC8",
"&. c #F6DECB",
"*. c #E1DBD7",
"=. c #F1E0C7",
"-. c #F6E1CB",
";. c #F6E3CC",
":. c #FAE1C9",
">. c #FBE0CA",
",. c #FCE2C9",
"<. c #FDE2C9",
"1. c #FEE2C9",
"2. c #FEE3C9",
"3. c #FDE1CA",
"4. c #FDE1CB",
"5. c #FEE1CA",
"6. c #FCE2CB",
"7. c #FDE3CB",
"8. c #FEE2CA",
"9. c #FEE3CA",
"0. c #FBE4CB",
"q. c #FAE2CD",
"w. c #EDE0D4",
"e. c #F5E5D6",
"r. c #F6E6D7",
"t. c #FEE7D1",
"y. c #FEE8D4",
"u. c #F3E7DA",
"i. c #F7E5D8",
"p. c #F5E6DA",
"a. c #F8E6DA",
"s. c #F9EADA",
"d. c #FDEDDE",
"f. c #FDEEDE",
"g. c #FDEEDF",
"h. c #E1FBD4",
"j. c #CAE5EF",
"k. c #D0E1EE",
"l. c #D0E0EF",
"z. c #CFE0F1",
"x. c #CBE8F7",
"c. c #E6E4E3",
"v. c #E7E9EB",
"b. c #EFEDEB",
"n. c #F1EAE6",
"m. c #FDEFE4",
"M. c #FBF1E5",
"N. c #FAF0E7",
"B. c #FCF2E7",
"V. c #F2F4ED",
"C. c #F7F5EF",
"Z. c #FEF3EA",
"A. c #FBF4EB",
"S. c #FBF5EB",
"D. c #F9F4EE",
"F. c #F2F0F0",
"G. c #F3F3F3",
"H. c #F2F4F2",
"J. c #F4F4F4",
"K. c #F6F7F5",
"L. c #F7F7F6",
"P. c #FAF7F4",
"I. c #FAF9F4",
"U. c #F9F8F7",
"Y. c #FAFBF6",
"T. c #F6F6F8",
"R. c #F8F8F8",
"E. c #F8F8F9",
"W. c #F9F9F9",
"Q. c #FAF8F8",
"!. c #F9FAF8",
"~. c #F8FAF9",
"^. c #FAFAF8",
"/. c #F9F9FA",
"(. c #F9FBFB",
"). c gray98",
"_. c #FBFCF9",
"`. c white",
/* pixels */
"o o o o o o o o o o o o o o o o o o o o o o o o o o o o o o o o ",
"o o o t $ $ $ o $ $ `.`.$ o J F G.J.w w w ~ o - - - - $ $ $ 2 o ",
"o o 8 $ $ $ $ o $ $ J.J.(.~.W./.E.R.w w w ~ o - - - $ $ $ $ 2 o ",
"o t $ $ $ $ $ o $ T.W.*.&.>.S.I.U.R.w w w ~ o q $ $ $ $ $ $ 2 o ",
"o $ $ $ $ $ $ o $ L.u.-.3.8.t.y.A.!.w w w ~ o $ $ $ $ $ $ r 3 o ",
"o 9 9 9 9 9 9 o 9 c.a.  8.8.  q.M.Y.~ ~ ~ H o 4 9 9 9 9 9 9 9 o ",
"o o o o o o o o o F.i.9.1.1.6.6.B._.o o o o o o o o o o o o o o ",
"o $ $ $ 5 > 4 $ $ K.e.2.,.<.5.4.N.^.8 o - - - - - g q o o $ $ o ",
"o $ $ $ $ o 9 $ $ H.D.D.=.;.m.Z.P.).O.O.O.$ $ $ $ $ $ o o $ $ o ",
"o $ $ $ $ o 9 $ h. .{ D.V.C.Q.v.D S o.O.O.O.$ $ $ $ $ 3 o $ $ o ",
"o 2 2 2 $ o 9 $ o.A _ _ _ _ _ _ % X o./ o.O.$ $ $ $ $ r o $ $ o ",
"o o o o o o o o +.Z T Q T W _ _ : & o./ / O.O.o o o o o o $ $ o ",
"o ~ o e u u u u # B ! E W _ T T ` ) O.$.w.+ = F F 6 6 6 o $ $ o ",
"o ~ o $ $ y $ y * V ! U _ _ T T ` ( O.w.w.= = F w w w w o - - o ",
"o ~ o $ $ $ $ $ #.' P U T R W W Q _ | x.w.= o F w w w w o - - o ",
"o ~ o $ $ $ $ $ r.] L U U Y W W Q _ } j.x.O.o F w w w w o - - o ",
"o o o o o o o o p.[ G W L L P P T I C x.k.5 o F w w w w o o o o ",
"o $ $ $ $ $ $ 3 n.N i d s p s s j a @ x.l.1 o K ~ ~ ~ ~ o f f o ",
"o $ $ $ $ $ $ r b.N x z k l l z m m ; x.z.1 o o o o o o o , , o ",
"o $ $ $ $ $ $ $ ).N c N N N N N N m N X.@.1 o 5 $ $ $ $ $ $ $ o ",
"o o o o o o o o o N v N $ - $ o N b N X.X.1 o $ $ $ $ $ $ $ $ o ",
"o w w o - - - $ $ N M N $ $ $ o N n N 0 5 < o 4 9 9 9 9 9 9 9 o ",
"o w w o $ $ $ $ $ N N N $ - $ o N n N o o o o o o o o o o o o o ",
"o w w o - $ $ $ $ o d.0.$ $ $ o N N N $ $ q g - - - - - - - - o ",
"o w w o - $ $ $ $ o d.0.$ $ $ o s.0.$ $ $ - - $ $ - - - $ $ t o ",
"o w w o $ $ $ $ $ o d.0.$ $ $ o d.7.$ $ $ $ $ $ $ $ $ $ $ 8 o o ",
"o w w o $ $ $ $ $ o d.0.$ $ $ o f.:.$ $ $ $ $ $ $ $ $ $ t o o o ",
"o w w o $ $ $ $ $ o G.G.o o o o g.%.o o o o o o o o o o o o o o ",
"o o w o - $ $ $ $ o O ..o o o o G.G.$ $ $ - - - - o ~ w w ^ h o ",
"o 7 w o - - $ $ - o     $ $ $ $ O ..$ $ $ $ $ - - o ~ w w w w o ",
"o - 7 o - - - $     .   $ $ $ $     $ $ $ $ $ - - o ~ w w w w o ",
"o o o o o o o o o o o o o o     .   o o o o o o o o o o o o o o "
};
