/* XPM */
static char *result[] = {
/* columns rows colors chars-per-pixel */
"32 32 176 2 ",
"   c black",
".  c #090909",
"X  c #06231E",
"o  c #05263B",
"O  c #463930",
"+  c #1D5B07",
"@  c #003E7C",
"#  c #144B5F",
"$  c #0A4164",
"%  c #004F62",
"&  c #096578",
"*  c #446472",
"=  c #4B8835",
"-  c #055888",
";  c #20579E",
":  c #03799C",
">  c #0570B2",
",  c #0471B4",
"<  c #0673B7",
"1  c #0975B9",
"2  c #0A76BA",
"3  c #0D77BA",
"4  c #0E78BB",
"5  c #0979BE",
"6  c #0A7ABF",
"7  c #0E78BC",
"8  c #0F78BC",
"9  c #0F79BC",
"0  c #0E79BD",
"q  c #0F7ABE",
"w  c #0B7CBC",
"e  c #1179BD",
"r  c #1279BE",
"t  c #107ABE",
"y  c #117ABE",
"u  c #127ABF",
"i  c #137ABF",
"p  c #006CCA",
"a  c #006DCD",
"s  c #006FCC",
"d  c #006ECD",
"f  c #006FCE",
"g  c #0B7CC1",
"h  c #0C7CC1",
"j  c #0C7FC5",
"k  c #0070CD",
"l  c #0062D5",
"z  c #0162D5",
"x  c #0063D5",
"c  c #0163D5",
"v  c #0262D4",
"b  c #0363D5",
"n  c #0064D4",
"m  c #0164D4",
"M  c #0064D5",
"N  c #0164D8",
"B  c #3A77C6",
"V  c #0284AE",
"C  c #0885B0",
"Z  c #2981A2",
"A  c #12A2A2",
"S  c #12A3A2",
"D  c #448396",
"F  c #628EA1",
"G  c #1381C2",
"H  c #0B9BCD",
"J  c #009DD2",
"K  c #009ED2",
"L  c #009FD2",
"P  c #009ED3",
"I  c #019ED3",
"U  c #009FD3",
"Y  c #019FD3",
"T  c #009ED4",
"R  c #009FD4",
"E  c #019FD4",
"W  c #019FD5",
"Q  c #1492DC",
"!  c #1694DE",
"~  c #00A0D2",
"^  c #02A0D3",
"/  c #04A0D2",
"(  c #00A0D4",
")  c #01A0D6",
"_  c #33A7CE",
"`  c #3FB3D9",
"'  c #51ABCC",
"]  c #4DAED1",
"[  c #59BEE0",
"{  c #5ABFE3",
"}  c #5FC5CC",
"|  c #A19E9E",
" . c #97A8B4",
".. c #A3F580",
"X. c #ACF58A",
"o. c #BDE9AB",
"O. c #A6B7C5",
"+. c #E8D8CA",
"@. c #EBDDC8",
"#. c #F7DFC8",
"$. c #F6DECB",
"%. c #E1DBD7",
"&. c #F1E0C7",
"*. c #F6E1CB",
"=. c #F6E3CC",
"-. c #FAE1C9",
";. c #FBE0CA",
":. c #FCE2C9",
">. c #FDE2C9",
",. c #FEE2C9",
"<. c #FEE3C9",
"1. c #FDE1CA",
"2. c #FDE1CB",
"3. c #FEE1CA",
"4. c #FCE2CB",
"5. c #FDE3CB",
"6. c #FEE2CA",
"7. c #FEE3CA",
"8. c #FBE4CB",
"9. c #FAE2CD",
"0. c #EDE0D4",
"q. c #F5E5D6",
"w. c #F6E6D7",
"e. c #FEE7D1",
"r. c #FEE8D4",
"t. c #F3E7DA",
"y. c #F7E5D8",
"u. c #F5E6DA",
"i. c #F8E6DA",
"p. c #F9EADA",
"a. c #FDEDDE",
"s. c #FDEEDE",
"d. c #FDEEDF",
"f. c #E1FBD4",
"g. c #CAE5EF",
"h. c #D0E1EE",
"j. c #D0E0EF",
"k. c #CFE0F1",
"l. c #CBE8F7",
"z. c #E6E4E3",
"x. c #E7E9EB",
"c. c #EFEDEB",
"v. c #F1EAE6",
"b. c #FDEFE4",
"n. c #FBF1E5",
"m. c #FAF0E7",
"M. c #FCF2E7",
"N. c #F2F4ED",
"B. c #F7F5EF",
"V. c #FEF3EA",
"C. c #FBF4EB",
"Z. c #FBF5EB",
"A. c #F9F4EE",
"S. c #F2F0F0",
"D. c #F3F3F3",
"F. c #F2F4F2",
"G. c #F4F4F4",
"H. c #F6F7F5",
"J. c #F7F7F6",
"K. c #FAF7F4",
"L. c #FAF9F4",
"P. c #F9F8F7",
"I. c #FAFBF6",
"U. c #F6F6F8",
"Y. c #F8F8F8",
"T. c #F8F8F9",
"R. c #F9F9F9",
"E. c #FAF8F8",
"W. c #F9FAF8",
"Q. c #F8FAF9",
"!. c #FAFAF8",
"~. c #F9F9FA",
"^. c #F9FBFB",
"/. c gray98",
"(. c #FBFCF9",
"). c white",
/* pixels */
"o o o o o o o o o o o o o o o o o o o o o o o o o o o o o o o o ",
"o o o y $ $ $ o $ $ $ $ $ o G.D.w w w w ).).o - - - - $ $ $ 1 o ",
"o o 7 $ $ $ $ o $ $ $ $ $ o Y.T.~.R.Q.^.G.G.o - - - $ $ $ $ 1 o ",
"o y $ $ $ $ $ o $ $ $ $ $ o Y.P.L.Z.;.$.%.R.U.q $ $ $ $ $ $ 1 o ",
"o $ $ $ $ $ $ o $ $ $ $ $ o W.C.r.e.6.1.*.t.J.$ $ $ $ $ $ t 2 o ",
"o 8 8 8 8 8 8 o 8 8 8 8 3 o I.n.9.  6.6.  i.z.3 8 8 8 8 8 8 8 o ",
"o o o o o o o o o o o o o o (.M.4.4.,.,.7.y.S.o o o o o o o o o ",
"o $ $ $ 4 > 3 $ $ $ $ $ 9 < !.m.2.3.>.:.<.q.H.- - h q o o $ $ o ",
"o $ $ $ $ o 8 $ $ $ $ X.X.X./.K.V.b.=.&.A.A.F.$ $ $ $ o o $ $ o ",
"o $ $ $ $ o 8 $ $ $ X.X.X...D F x.E.B.N.A.] } f.$ $ $ 2 o $ $ o ",
"o 1 1 1 $ o 8 $ $ $ X...~ ..X % ( ( ( ( ( ( S ..$ $ $ t o $ $ o ",
"o o o o o o o o o X.X.~ ~ ..& : ( ( R U E U A o.o o o o o $ $ o ",
"o Q o e i i i i r = + 0.@.X./ ) U U ( R T W V # G 5 5 5 o $ $ o ",
"o Q o $ $ u $ u $ = = 0.0.X.^ ) U U ( ( P W C * w w w w o - - o ",
"o Q o $ $ $ $ $ $ $ = 0.l.{ ( E R R Y U P K _ +.w w w w o - - o ",
"o Q o $ $ $ $ $ $ $ X.l.g.[ ( E R R I P P J ` w.w w w w o - - o ",
"o o o o o o o o o o o h.l.Z L U K K J J R H ' u.w w w w o o o o ",
"o $ $ $ $ $ $ 2 - o Q j.l.@ s k d d a d f p B v.Q Q Q Q o g g o ",
"o $ $ $ $ $ $ t 7 o Q k.l.; M M x z z l x c B c.o o o o o , , o ",
"o $ $ $ $ $ $ $ $ o Q O. .B M B B B B B B v B /.$ $ $ $ $ $ $ o ",
"o o o o o o o o o o Q  . .B n B $ $ $ $ B b B $ $ $ $ $ $ $ $ o ",
"o w w o - - - $ $ o Q $ $ B m B g g g 0 B N B 3 8 8 8 8 8 8 8 o ",
"o w w o $ $ $ $ $ o Q $ $ B m B o o o o B B B o o o o o o o o o ",
"o w w o - $ $ $ $ o Q $ $ B B B $ $ $ $ 8.a.h - - - - - - - - o ",
"o w w o - $ $ $ $ o Q $ $ $ 8.p.o $ $ $ 8.a.- $ $ - - - $ $ y o ",
"o w w o $ $ $ $ $ o Q $ $ $ 5.a.o $ $ $ 8.a.$ $ $ $ $ $ $ 7 o o ",
"o w w o $ $ $ $ $ o Q $ $ $ -.s.o $ $ $ 8.a.$ $ $ $ $ $ y o o o ",
"o w w o $ $ $ $ $ o o o o o #.d.o o o o D.D.o o o o o o o o o o ",
"o o w o - $ $ $ $ o 8 2 o o D.D.2 $ $ $ | O - - - o Q w w ! j o ",
"o 6 w o - - $ $ - o 8 $ $ $ | O $ $ $ $     $ - - o Q w w w w o ",
"o - 6 o - - - $ $ o 8 $ $ $     $ $ $ $   .     - o Q w w w w o ",
"o o o o o o o o o o o o o o   .     o o o o o o o o o o o o o o "
};
