/* XPM */
static char *result[] = {
/* columns rows colors chars-per-pixel */
"32 32 192 2 ",
"   c #1C1B1B",
".  c #031724",
"X  c #0E1F2B",
"o  c #03273E",
"O  c #23610D",
"+  c #062A41",
"@  c #313C43",
"#  c #797675",
"$  c #468330",
"%  c #4B8835",
"&  c #5F9347",
"*  c #4F9851",
"=  c #579255",
"-  c #62A149",
";  c #619B63",
":  c #025E96",
">  c #02609A",
",  c #02639E",
"<  c #0F649B",
"1  c #0C659F",
"2  c #11669D",
"3  c #0F68A2",
"4  c #026BAC",
"5  c #046CAC",
"6  c #046DAD",
"7  c #196DA2",
"8  c #026EB0",
"9  c #026FB1",
"0  c #036FB1",
"q  c #036FB2",
"w  c #046FB1",
"e  c #046FB2",
"r  c #0370B2",
"t  c #0370B3",
"y  c #0470B2",
"u  c #0570B2",
"i  c #0570B3",
"p  c #0471B4",
"a  c #0472B5",
"s  c #0572B5",
"d  c #0473B6",
"f  c #0673B6",
"g  c #0574B7",
"h  c #0E72B7",
"j  c #0A76B7",
"k  c #077AB6",
"l  c #0575B8",
"z  c #0774B8",
"x  c #0675B9",
"c  c #0676BA",
"v  c #0874B8",
"b  c #0875B9",
"n  c #0975B9",
"m  c #0875BA",
"M  c #0A76BA",
"N  c #0D77BA",
"B  c #0E78BB",
"V  c #0979BE",
"C  c #0A7ABF",
"Z  c #0E78BC",
"A  c #0F78BC",
"S  c #0F7ABE",
"D  c #1E79B1",
"F  c #1177B8",
"G  c #1074BB",
"H  c #1079BD",
"J  c #1179BD",
"K  c #1279BE",
"L  c #107ABE",
"P  c #117ABE",
"I  c #107BBF",
"U  c #127ABF",
"Y  c #137ABF",
"T  c #127BBF",
"R  c #167ABF",
"E  c #167EBE",
"W  c #1C7DB9",
"Q  c #3264A4",
"!  c #3468A7",
"~  c #3968A3",
"^  c #227DB5",
"/  c #217FB9",
"(  c #006CCE",
")  c #0A7BC1",
"_  c #0B7CC1",
"`  c #0C7CC1",
"'  c #0C7DC2",
"]  c #0E7EC3",
"[  c #0D7FC4",
"{  c #0C7FC5",
"}  c #0D7FC5",
"|  c #0E7EC4",
" . c #117BC0",
".. c #137AC2",
"X. c #137BC2",
"o. c #117CC0",
"O. c #157DC5",
"+. c #0066D3",
"@. c #0666D3",
"#. c #0766D3",
"$. c #1169D0",
"%. c #3076C3",
"&. c #3376C3",
"*. c #3376C4",
"=. c #3477C4",
"-. c #3178C5",
";. c #3178C6",
":. c #3074C8",
">. c #3375C8",
",. c #367BCA",
"<. c #337CCA",
"1. c #437AC0",
"2. c #129AAE",
"3. c #1E8FB2",
"4. c #1C90B5",
"5. c #2082AD",
"6. c #2D83B4",
"7. c #2C83B6",
"8. c #2683BA",
"9. c #2287BA",
"0. c #2784BC",
"q. c #2984BA",
"w. c #3287BA",
"e. c #3388BC",
"r. c #3088BF",
"t. c #338BBE",
"y. c #2F92B5",
"u. c #4088A6",
"i. c #7C9FB5",
"p. c #139FC5",
"a. c #118BD4",
"s. c #138DD6",
"d. c #128ED6",
"f. c #1C8ED9",
"g. c #0199D2",
"h. c #1492DC",
"j. c #1693DD",
"k. c #1694DE",
"l. c #1695DF",
"z. c #3A8DC0",
"x. c #388CC3",
"c. c #388DC4",
"v. c #3E90C5",
"b. c #3EA2CD",
"n. c #28AAD3",
"m. c #1797E1",
"M. c #1D97E2",
"N. c #199BE6",
"B. c #3FA8E4",
"V. c #4D80C2",
"C. c #5BA9CB",
"Z. c #4AB4D7",
"A. c #69B9C1",
"S. c #44AAE4",
"D. c #43ADE9",
"F. c #65BBEC",
"G. c #8FDE94",
"H. c #9BE890",
"J. c #99EC92",
"K. c #ACF58A",
"L. c #AFF58E",
"P. c #B8F69B",
"I. c #BBF69F",
"U. c #8DB0C7",
"Y. c #9FC8DD",
"T. c #BFC8C3",
"R. c #BAC9C9",
"E. c #A9CDDD",
"W. c #B5C8D4",
"Q. c #B7CAD5",
"!. c #BDCCD5",
"~. c #BED2DD",
"^. c #A4CEE3",
"/. c #C0C9C5",
"(. c #C2CBC6",
"). c #CED6D6",
"_. c #CED7D7",
"`. c #D1D8D8",
"'. c #D2DEDF",
"]. c #E5D7CC",
"[. c #DFF8D2",
"{. c #FDE4CD",
"}. c #D0E8F5",
"|. c #D7EBF5",
" X c #E7E7E7",
".X c #EBF9E3",
"XX c #F0F9EA",
"oX c #F2F9ED",
"OX c #F2F7F7",
"+X c #F8FAF5",
"@X c #FAF8F8",
"#X c #FAFAF8",
/* pixels */
"8 0 0 y y y y 8 y y y y / W j g g j W / g a 9 r t r y v b b z z ",
"0 z b P T T T y T T T T #X|.F.D.D.F.|.#XN.h.c ' | ] o.T T H n z ",
"0 b Z T T T T y T T T T #XOX|.}.}.|.OX#XN.h.c ' o.o.T T T H n z ",
"y P T T T T T y T T T T #X#X#X@X@X#X#X#XN.h.c S T T T T T H n q ",
"y T T T T T T y T T T T #X#X#X#X#X#X#X#XN.h.c H T T T T T L M 0 ",
"w A A A A A A w A A A A #X#X#X#X#X#X#X#Xh.a.l N A A A A A A A w ",
"8 i i i i i i 8 i i i i #X#X#X#X#X#X#X#Xc l r u i i i i i i i 8 ",
"e H H H B u N H H H H H #X#X#X#X#X#X#X#X' ' ' ' ' ` S v e H H e ",
"y T T T H i A T T E 9.H.XXoX+X#X#X+XoXXXH.9.E T T T T b y T T y ",
"e H H H H i A T T y.G.K.K.P.[..X.X[.P.K.K.G.y.T T T T M y T T y ",
"0 n n n H i A T T y.G.K.K.L.P.I.I.P.L.K.K.G.y.T T T T L y T T y ",
"8 0 0 0 e 8 w y y k p.* K.K.K.- - K.K.- J.p.k y y y y y y T T y ",
"g h.c J Y Y Y Y K e./.& % % % $ $ % % % = T.6.l.m.V V V y  .T y ",
"g h.c H T U T U T z.(.; % % % O O % % % 3.R.7.l.N.N.N.N.t | o.y ",
"g h.c H T T T T T z.(.A.% % % O O % % % 4.E.q.l.N.N.N.N.t | o.y ",
"g h.c H T T T T T z.(.n.2.% % $ $ % % 2.Z.^.0.l.N.N.N.N.t | o.y ",
"8 y y y y y y 0 9 6.T.u.5.g.g.g.g.g.g.b.C.^.0.l.N.N.N.N.t } } t ",
"y T T T T T T M v 6.T.~ ( ( ( ( ( ( ( ( ! Y.8.d.h.h.h.h.r _ _ r ",
"y T T T T T T L Z 6.T.~ +.+.+.+.+.+.+.+.Q U.^ x c c c c 8 p p 8 ",
"y T T T T T T T H 6.T.V.@.>.>.>.>.>.>.@.1.i.D B H H H H H H H e ",
"9 g g 9 0 t t t e c h.,.#.%.G 0 } O.;.#.=.f 0 H T T T T T T T y ",
"g N.N.g m } } } H c h.,.$.-...r _ X.-.$.*.s 0 N A A A A A A A w ",
"g N.N.g m } } } H c h.,.:.<.f.d p h %.:.&.0 8 u i i i i i i i 8 ",
"g N.N.g m } } o.H c h.M.].~.B.g H x.!.].R S ` ' ' ' ' ' ' ' ' r ",
"g N.N.g m } [ | H c h.N.{.'.S.g b v.`.{. .] o.T  .| | | T T P y ",
"g N.N.g m | o.T H c h.N.{.'.S.g b v.`.{.T T T T T T T T T Z b 0 ",
"g N.N.g m | o.T H c h.N.{.'.S.g b v.`.{.T T T T T T T T P b z 0 ",
"g N.N.g I | o.T H 9 a g {._.t.9 0 w.).{.y y y y y y y y y 0 0 8 ",
"0 ) j.g T T T T ' i A M  XW.r.b M c.Q. XT o.] | ' c h.N.N.k.{ q ",
"0 C s.d T T o.o.' 5 1 < # @ 7 T T 7 @ # < 3 F o.' c h.N.N.N.N.g ",
"0 m C r T o.] | ' : o .   X 2 T T 2 X   . + 3 ] ' c h.N.N.N.N.g ",
"8 0 0 8 y y r t r 4 , > > , 6 y y 6 , > > , 6 r r 9 a g g g g 9 "
};
