/* XPM */
static char *result[] = {
/* columns rows colors chars-per-pixel */
"32 32 63 1 ",
"  c gray3",
". c #090909",
"X c #0B0B0B",
"o c gray5",
"O c #0E0E0E",
"+ c gray6",
"@ c #111111",
"# c #151515",
"$ c gray10",
"% c #1B1B1B",
"& c gray11",
"* c #1D1D1D",
"= c #1E1E1E",
"- c gray12",
"; c #05263B",
": c #202020",
"> c gray13",
", c #222222",
"< c #232323",
"1 c gray14",
"2 c gray15",
"3 c gray16",
"4 c #2A2A2A",
"5 c gray17",
"6 c #2D2D2D",
"7 c gray18",
"8 c #313131",
"9 c #0A4164",
"0 c #955629",
"q c #AA6331",
"w c #AF7144",
"e c #B57C53",
"r c #E8BF1D",
"t c #055888",
"y c #0570B2",
"u c #0471B4",
"i c #0673B6",
"p c #0975B9",
"a c #0877BB",
"s c #0A76BA",
"d c #0D77BA",
"f c #0E78BB",
"g c #0979BD",
"h c #0979BE",
"j c #0A7ABF",
"k c #0E78BC",
"l c #0F78BC",
"z c #0F7ABE",
"x c #0B7CBC",
"c c #1179BD",
"v c #1279BE",
"b c #107ABE",
"n c #117ABE",
"m c #127ABF",
"M c #137ABF",
"N c #0B7CC1",
"B c #0C7CC1",
"V c #0C7FC5",
"C c #1381C2",
"Z c #118BD4",
"A c #128CD5",
"S c #1492DC",
"D c #1694DE",
/* pixels */
";;;;;;;;;;;;;;;;;;;;;;;;;;;;;;;;",
";;;n999;99999;ACxxxxxS;tttt999p;",
";;k9999;99999;gCxxxxxS;ttt9999p;",
";n99999;99999;iCxxxxxS;z999999p;",
";999999;99999;aCxxxxxS;999999bs;",
";llllll;lllld;ZSSSSSSZ;dlllllll;",
";;;;;;;;;;;;;;;;;;;;;;;;;;;;;;;;",
";999fyd999+=<,,>*Ok;tttttBz;;99;",
";9999;l99@qqqqqqqqq+9999999;;99;",
";9999;l9+qwrrrrrrrwqo999999s;99;",
";ppp9;l9#qqweeeeewqw1999999b;99;",
";;;;;;;;;5qqqqqqqqw>;;;;;;;;;99;",
";S;cMMMMv;5>>>>>>>>05l;CChhh;99;",
";S;99m9m97eewwwqq>000-;Cxxxx;tt;",
";S;999995eeewwwqqq>q00-Cxxxx;tt;",
";S;9999%eerwwwwwwqqqq00$xxxx;tt;",
";;;;;;X0eewwww=*:-2qq000oxxx;;;;",
";99999&rewwww$+wwqq6qq00%SSS;NN;",
";99999-qewww2 .%-4qqqq00:;;;;uu;",
";99999-qqwwwwOOwwwqqqq00=999999;",
";;;;;;,0qwww2 .%-3qqq000*999999;",
";xx;tt>0qqqww$+wwqq8q000-llllll;",
";xx;99>000qwww::,,3q0000,;;;;;;;",
";xx;r9%00qqqwwwwqqqq0000*tttttt;",
";xx;t99400qqqqqqqq00000=9ttt99n;",
";xxr99r9-000000qq00000-999999k;;",
";xx;99999$-:==:>>-===*999999n;;;",
";xx;99r9r;;;;;;;;;;;;;;;;;;;;;;;",
";;x;t9999;ls;;;rs9999tttt;SxxDV;",
";jx;tt99t;l9r9999999999tt;Sxxxx;",
";tj;ttt99;l999999999999tt;Sxxxx;",
";;;;;;;;;;;;;;;;;;;;;;;;;;;;;;;;"
};
