/* XPM */
static char *result[] = {
/* columns rows colors chars-per-pixel */
"32 32 58 1 ",
"  c #020202",
". c gray1",
"X c #040404",
"o c gray2",
"O c #060606",
"+ c #070707",
"@ c gray3",
"# c #090909",
"$ c gray4",
"% c #0B0B0B",
"& c gray5",
"* c #0E0E0E",
"= c gray6",
"- c #101010",
"; c #111111",
": c gray7",
"> c #131313",
", c gray8",
"< c #151515",
"1 c #161616",
"2 c gray9",
"3 c #181818",
"4 c #191919",
"5 c gray10",
"6 c #1B1B1B",
"7 c gray11",
"8 c #1D1D1D",
"9 c #1E1E1E",
"0 c gray12",
"q c #05263B",
"w c #202020",
"e c gray13",
"r c #0A4164",
"t c #055888",
"y c #0570B2",
"u c #0471B4",
"i c #0673B6",
"p c #0975B9",
"a c #0877BB",
"s c #0A76BA",
"d c #0D77BA",
"f c #0E78BB",
"g c #0979BD",
"h c #0A7ABF",
"j c #0E78BC",
"k c #0F78BC",
"l c #0F7ABE",
"z c #0B7CBC",
"x c #1179BD",
"c c #107ABE",
"v c #117ABE",
"b c #0B7CC1",
"n c #0C7CC1",
"m c #0C7FC5",
"M c #1381C2",
"N c #128CD5",
"B c #1492DC",
"V c #1694DE",
/* pixels */
"qqqqqqqqqqqqqqqqqqqqqqqqqqqqqqqq",
"qqqvrrrqrrrrrqNMzzzzzBqttttrrrpq",
"qqjrrrrqrrrrrqgMzzzzzBqtttrrrrpq",
"qvrrrrrqrrrrrqiMzzzzzBqlrrrrrrpq",
"qrrrrrrqrrrrrqaMzzzzzBqrrrrrrcsq",
"qkkkkkkqkkk=>,>:>>>>&&qdkkkkkkkq",
"qqqqqqqqq#*60w929ww915$qqqqqqqqq",
"qrrrfydr*5<30ew2wee939:Otnlqqrrq",
"qrrrrqk%:<2849929w940w2;@rrqqrrq",
"qrrrrq#:<<9e81<,<<18ee9<;#rsqrrq",
"qppprO;283992<<1<<<29w92<>@cqrrq",
"qqqq -<8e02<29w00w922139w9:oqrrq",
"qBqxo:1399<19eeeeeew918ee9>oqrrq",
"qBqr#<993<19eewweeeew12993,@qttq",
"qBqO:9ee9<<we92290we01,2399:.ttq",
"qBqo>9009<<ww311223ww<<79ew,Xttq",
"qqq.:2222,10e999999e01,2399>.qqq",
"qrro>9ww9<<ww322223ww<<9932: bbq",
"qrr.:9ww9<<9ew0000we9<2we08>.uuq",
"qrrr#,1221,19eeeeee91<9eew2;orrq",
"qqqq#:<9082<29w00w92<29ee9,Orrrq",
"qzzqO;<904992<1<<<<2994992;.kkkq",
"qzzqr#;<29ee92,<1<<9ee92<:#qqqqq",
"qzzqtrO-<9eee8390829ew9<;@tttttq",
"qzzqtrrO;39w039ew2,282<;otttrrvq",
"qzzqrrrr#433829w9<,,21;Orrrrrjqq",
"qzzqrrrrr#25,:>>>:;>65%orrrrvqqq",
"qzzqrrrrrq++.......X#+oqqqqqqqqq",
"qqzqtrrrrqksqqqqsrrrrttttqBzzVmq",
"qhzqttrrtqkrrrrrrrrrrrrttqBzzzzq",
"qthqtttrrqkrrrrrrrrrrrrttqBzzzzq",
"qqqqqqqqqqqqqqqqqqqqqqqqqqqqqqqq"
};
