/* XPM */
static char *result[] = {
/* columns rows colors chars-per-pixel */
"32 32 76 1 ",
"  c #026EB0",
". c #026FB1",
"X c #036FB1",
"o c #036FB2",
"O c #046FB1",
"+ c #046FB2",
"@ c #0370B2",
"# c #0370B3",
"$ c #0470B2",
"% c #0570B2",
"& c #0570B3",
"* c #0471B4",
"= c #0472B5",
"- c #0572B5",
"; c #0473B6",
": c #0673B6",
"> c #0673B7",
", c #0574B7",
"< c #0575B8",
"1 c #0774B8",
"2 c #0675B8",
"3 c #0675B9",
"4 c #0676BA",
"5 c #0874B8",
"6 c #0875B9",
"7 c #0975B9",
"8 c #0875BA",
"9 c #0877BB",
"0 c #0A76BA",
"q c #0D77BA",
"w c #0E78BB",
"e c #0979BD",
"r c #0979BE",
"t c #0A7ABF",
"y c #0E78BC",
"u c #0F78BC",
"i c #0F79BC",
"p c #0E79BD",
"a c #0F7ABE",
"s c #1079BD",
"d c #1179BD",
"f c #1279BE",
"g c #107ABE",
"h c #117ABE",
"j c #107BBF",
"k c #127ABF",
"l c #137ABF",
"z c #127BBF",
"x c #127DBF",
"c c #0A7BC1",
"v c #0B7CC1",
"b c #0C7CC1",
"n c #0C7DC2",
"m c #0E7EC3",
"M c #0F7EC3",
"N c #0D7FC4",
"B c #0C7FC5",
"V c #0D7FC5",
"C c #0E7EC4",
"Z c #0E7FC4",
"A c #117BC0",
"S c #117CC0",
"D c #0D81C8",
"F c #118BD4",
"G c #128CD5",
"H c #138DD6",
"J c #128ED6",
"K c #1492DC",
"L c #1693DD",
"P c #1694DE",
"I c #1695DF",
"U c #1796E0",
"Y c #1797E1",
"T c #189AE4",
"R c #199AE5",
"E c #199BE6",
/* pixels */
" XX$$$$ $$$$+.=,,,,,,=.@#@$56611",
"X16hzzz$zzzzs2GREEEEEK4nCmSzzs71",
"X6yzzzz$zzzzs#eYEEEEEK4nSSzzzs71",
"$hzzzzz$zzzzsX:UEEEEEK4azzzzzs7o",
"$zzzzzz$zzzzs#9YEEEEEK4szzzzzg0X",
"OuuuuuuOuuuuq<FKKKKKKF<quuuuuuuO",
" &&&&&& &&&&%@<444444<@%&&&&&&& ",
"+sssw%qsssssi>>>>5y+nnnnnba5+ss+",
"$zzzs&uzzzzzzzzzzzz$zzzzzzz6$zz$",
"+ssss&uzzzzzzzzzzzz$zzzzzzz0$zz$",
"X777s&uzzzzzzzzzzzz$zzzzzzzg$zz$",
" XXX+ O$$$$$$$$$$$$ $$$$$$$$$zz$",
",K4dllllf666666X666hzu&IYrrr$Az$",
",K4szkzkzzzzzzz$zzzzzu&IEEEE#CS$",
",K4szzzzzzzzzzz$zzzzzu&IEEEE#CS$",
",K4szzzzzzzzzzz$zzzzzu&IEEEE#CS$",
" $$$$$$X..=,,;@ Zzzzzw%IEEEE#VV#",
"$zzzzzz054KEELcXZxzzh:XJKKKK@vv@",
"$zzzzzzgy4KEELcXVMSzh:X34444 ** ",
"$zzzzzzzs4KEELcXVVNAh:Xwsssssss+",
".,,.X###+4KEELcXVVVAh:Xszzzzzzz$",
",EE,8VVVs4KEEID@vvvpw-XquuuuuuuO",
",EE,8VVVs4KEETI;***&%X %&&&&&&& ",
",EE,8VVSs4KEEEE,sssssabnnnnnnnn@",
",EE,8VNCs4KEEEE,6zzzAmSzACCCzzh$",
",EE,8CSzs4KEEEE,6zzzzzzzzzzzzy6X",
",EE,8CSzs4KEEEE,6zzzzzzzzzzzh61X",
",EE,jCSzs.=,,,,.X$$$$$$$$$$$$XX ",
"XcL,zzzzn&u066660zzzzSmCn4KEEPBo",
"XtH;zzSSn&uzzzzzzzzzzzzSn4KEEEE,",
"X8t@zSmCn&uzzzzzzzzzzzzmn4KEEEE,",
" XX $$@#@ O$$$$$$$$$$$$@@.=,,,,."
};
