/* XPM */
static char *result[] = {
/* columns rows colors chars-per-pixel */
"32 32 41 1 ",
"  c #05263B",
". c #0A4164",
"X c #055888",
"o c #0570B2",
"O c #0471B4",
"+ c #0572B5",
"@ c #0673B6",
"# c #0673B7",
"$ c #0975B9",
"% c #0877BB",
"& c #0A76BA",
"* c #0D77BA",
"= c #0E78BB",
"- c #0979BD",
"; c #0979BE",
": c #0A7ABF",
"> c #0E78BC",
", c #0F78BC",
"< c #0F79BC",
"1 c #0E79BD",
"2 c #0F7ABE",
"3 c #0B7CBC",
"4 c #1179BD",
"5 c #1279BE",
"6 c #107ABE",
"7 c #117ABE",
"8 c #127ABF",
"9 c #137ABF",
"0 c #127DBF",
"q c #0B7CC1",
"w c #0C7CC1",
"e c #0F7EC3",
"r c #0D7FC4",
"t c #0C7FC5",
"y c #0E7FC4",
"u c #1381C2",
"i c #118BD4",
"p c #128CD5",
"a c #128ED6",
"s c #1492DC",
"d c #1694DE",
/* pixels */
"                                ",
"   7... ..... pu33333s XXXX...$ ",
"  >.... ..... -u33333s XXX....$ ",
" 7..... ..... @u33333s 2......$ ",
" ...... ..... %u33333s ......6& ",
" ,,,,,, ,,,,* issssssi *,,,,,,, ",
"                                ",
" ...=o*.....<#### > XXXXXw2  .. ",
" .... ,............ .......  .. ",
" .... ,............ .......& .. ",
" $$$. ,............ .......6 .. ",
"                             .. ",
" s 499995          7., uu;;; .. ",
" s ..8.8....... ....., u3333 XX ",
" s ............ ....., u3333 XX ",
" s ............ ....., u3333 XX ",
"                y....= u3333    ",
" ......&X s..XX y0..7@ assss qq ",
" ......6> s..XX .eX.7@       OO ",
" ........ s..XX ..r.7@ =....... ",
"          s..X. ....7@ ........ ",
" 33 XXX.. s.... qqq1=+ *,,,,,,, ",
" 33 ..... s..X.                 ",
" 33 X.... s.... .....2wXXXXXXXX ",
" 33 X.... s....  ....XX..XXX..7 ",
" 33 ..... s....  ............>  ",
" 33 ..... s....  ...........7   ",
" 33 .....                       ",
"  3 X.... ,&    &....XXXX s33dt ",
" :3 XX..X ,............XX s3333 ",
" X: XXX.. ,............XX s3333 ",
"                                "
};
