/* XPM */
static char *result[] = {
/* columns rows colors chars-per-pixel */
"32 32 202 2 ",
"   c #1C1B1B",
".  c #031724",
"X  c #0E1F2B",
"o  c #03273E",
"O  c #062A41",
"+  c #313C43",
"@  c #564D44",
"#  c #797675",
"$  c #025E96",
"%  c #02609A",
"&  c #02639E",
"*  c #0F649B",
"=  c #0C659F",
"-  c #11669D",
";  c #0F68A2",
":  c #026BAC",
">  c #046CAC",
",  c #046DAD",
"<  c #196DA2",
"1  c #026EB0",
"2  c #026FB1",
"3  c #036FB1",
"4  c #036FB2",
"5  c #046FB1",
"6  c #046FB2",
"7  c #0370B2",
"8  c #0370B3",
"9  c #0470B2",
"0  c #0570B2",
"q  c #0570B3",
"w  c #0471B4",
"e  c #0472B5",
"r  c #0572B5",
"t  c #0473B6",
"y  c #0673B6",
"u  c #0574B7",
"i  c #0E72B7",
"p  c #0A76B7",
"a  c #077AB6",
"s  c #0575B8",
"d  c #0774B8",
"f  c #0675B9",
"g  c #0676BA",
"h  c #0874B8",
"j  c #0875B9",
"k  c #0975B9",
"l  c #0875BA",
"z  c #0A76BA",
"x  c #0D77BA",
"c  c #0E78BB",
"v  c #0979BE",
"b  c #0A7ABF",
"n  c #0E78BC",
"m  c #0F78BC",
"M  c #0F7ABE",
"N  c #1E79B1",
"B  c #1177B8",
"V  c #1074BB",
"C  c #1079BD",
"Z  c #1179BD",
"A  c #1279BE",
"S  c #107ABE",
"D  c #117ABE",
"F  c #107BBF",
"G  c #127ABF",
"H  c #137ABF",
"J  c #127BBF",
"K  c #167ABF",
"L  c #167EBE",
"P  c #1C7DB9",
"I  c #3264A4",
"U  c #3468A7",
"Y  c #3968A3",
"T  c #227DB5",
"R  c #217FB9",
"E  c #006CCE",
"W  c #0A7BC1",
"Q  c #0B7CC1",
"!  c #0C7CC1",
"~  c #0C7DC2",
"^  c #0E7EC3",
"/  c #0D7FC4",
"(  c #0C7FC5",
")  c #0D7FC5",
"_  c #0E7EC4",
"`  c #117BC0",
"'  c #137AC2",
"]  c #137BC2",
"[  c #117CC0",
"{  c #157DC5",
"}  c #0066D3",
"|  c #0666D3",
" . c #0766D3",
".. c #1169D0",
"X. c #3076C3",
"o. c #3376C3",
"O. c #3376C4",
"+. c #3477C4",
"@. c #3178C5",
"#. c #3178C6",
"$. c #3074C8",
"%. c #3375C8",
"&. c #367BCA",
"*. c #337CCA",
"=. c #437AC0",
"-. c #1F8FB1",
";. c #2082AD",
":. c #3C89AB",
">. c #2D83B4",
",. c #2683BA",
"<. c #2287BA",
"1. c #2784BC",
"2. c #3287BA",
"3. c #3388BC",
"4. c #3088BF",
"5. c #338BBE",
"6. c #2F92B5",
"7. c #0EA1AD",
"8. c #23ACA4",
"9. c #7C9FB5",
"0. c #139FC5",
"q. c #118BD4",
"w. c #138DD6",
"e. c #128ED6",
"r. c #1C8ED9",
"t. c #0199D2",
"y. c #019FD3",
"u. c #1492DC",
"i. c #1693DD",
"p. c #1694DE",
"a. c #1695DF",
"s. c #368FC7",
"d. c #388CC3",
"f. c #398EC2",
"g. c #388DC4",
"h. c #348FC8",
"j. c #3E90C5",
"k. c #16AACA",
"l. c #12A8CC",
"z. c #05A1D1",
"x. c #3EA2CD",
"c. c #24ABD8",
"v. c #30AFDA",
"b. c #1797E1",
"n. c #1D97E2",
"m. c #199BE6",
"M. c #3FA8E4",
"N. c #4D80C2",
"B. c #5FA8C6",
"V. c #49BDCF",
"C. c #4EB3D2",
"Z. c #44AAE4",
"A. c #43ADE9",
"S. c #65BBEC",
"D. c #6AC2DE",
"F. c #68C3E1",
"G. c #8FDE94",
"H. c #9BE890",
"J. c #99EC92",
"K. c #ACF58A",
"L. c #AEF58D",
"P. c #A1E696",
"I. c #ABEC9B",
"U. c #B4F595",
"Y. c #A0E9AA",
"T. c #8DB0C7",
"R. c #9FC8DD",
"E. c #BFC8C3",
"W. c #BDCCCC",
"Q. c #B5C8D4",
"!. c #B7CAD5",
"~. c #BDCCD5",
"^. c #BED2DD",
"/. c #A4CEE3",
"(. c #A7D1E6",
"). c #ACD0E0",
"_. c #C0C9C5",
"`. c #CED6D6",
"'. c #CED7D7",
"]. c #D1D8D8",
"[. c #D2DEDF",
"{. c #E5D7CC",
"}. c #F8DDC4",
"|. c #FADEC6",
" X c #FDE2C9",
".X c #FEE2C9",
"XX c #FDE4CD",
"oX c #FDE5CF",
"OX c #FDE9D6",
"+X c #D1EAEE",
"@X c #CBE7F1",
"#X c #D0E8F5",
"$X c #D7EBF5",
"%X c #E7E7E7",
"&X c #E5F6E6",
"*X c #F1F9EC",
"=X c #F2F7F7",
"-X c #FBF5F0",
";X c #FBF6F0",
":X c #FAF7F3",
">X c #FAF8F8",
",X c #FAFAF8",
/* pixels */
"1 3 3 9 9 9 9 1 9 9 9 9 R P p u u p P R u e 2 7 8 7 9 h j j d d ",
"3 d j D J J J 9 J J J J ,X$XS.A.A.S.$X,Xm.u.g ~ _ ^ [ J J C k d ",
"3 j n J J J J 9 J J J J ,X=X$X#X#X$X=X,Xm.u.g ~ [ [ J J J C k d ",
"9 D J J J J J 9 J J J J :XOX-X>X>X-XOX:Xm.u.g M J J J J J C k 4 ",
"9 J J J J J J 9 J J J J .X}. X|.|. X}..Xm.u.g C J J J J J S z 3 ",
"5 m m m m m m 5 m m m m .X X@  X X@  X.Xu.q.s x m m m m m m m 5 ",
"1 q q q q q q 1 q q q q .X X X X X X X.Xg s 7 0 q q q q q q q 1 ",
"6 C C C c 0 x C C C C C .X.X.X.X.X.X.X.X~ ~ ~ ~ ~ ! M h 6 C C 6 ",
"9 J J J C q m J J L <.H.*X;XOXoXoXOX;X*XH.<.L J J J J j 9 J J 9 ",
"6 C C C C q m J J 6.G.K.U.&X+X@X@X+X&XU.K.G.6.J J J J z 9 J J 9 ",
"3 k k k C q m J J 6.G.K.L.Y.V.v.v.V.Y.L.K.G.6.J J J J S 9 J J 9 ",
"1 3 3 3 6 1 5 9 9 a 0.J.8.l.z.y.y.z.l.k.J.0.a 9 9 9 9 9 9 J J 9 ",
"u u.g Z H H H H A 3._.I.7.y.y.y.y.y.y.y.P.E.>.a.b.v v v 9 ` J 9 ",
"u u.g C J G J G J f.W.D.y.y.y.y.y.y.y.y.-.E.>.a.m.m.m.m.8 _ [ 9 ",
"u u.g C J J J J J s.).F.y.y.y.y.y.y.y.y.-.E.>.a.m.m.m.m.8 _ [ 9 ",
"u u.g C J J J J J h.(.c.y.y.y.y.y.y.y.y.C.E.>.a.m.m.m.m.8 _ [ 9 ",
"1 9 9 9 9 9 9 3 2 1./.:.;.t.t.t.t.t.t.x.B.E.>.a.m.m.m.m.8 ) ) 8 ",
"9 J J J J J J z h ,.R.U E E E E E E E E Y E.>.e.u.u.u.u.7 Q Q 7 ",
"9 J J J J J J S n T T.I } } } } } } } } Y E.>.f g g g g 1 w w 1 ",
"9 J J J J J J J C N 9.=.| %.%.%.%.%.%.| N.E.>.c C C C C C C C 6 ",
"2 u u 2 3 8 8 8 6 g u.&. .X.V 3 ) { #. .+.y 3 C J J J J J J J 9 ",
"u m.m.u l ) ) ) C g u.&...@.' 7 Q ] @...O.r 3 x m m m m m m m 5 ",
"u m.m.u l ) ) ) C g u.&.$.*.r.t w i X.$.o.3 1 0 q q q q q q q 1 ",
"u m.m.u l ) ) [ C g u.n.{.^.M.u C d.~.{.K M ! ~ ~ ~ ~ ~ ~ ~ ~ 7 ",
"u m.m.u l ) / _ C g u.m.XX[.Z.u j j.].XX` ^ [ J ` _ _ _ J J D 9 ",
"u m.m.u l _ [ J C g u.m.XX[.Z.u j j.].XXJ J J J J J J J J n j 3 ",
"u m.m.u l _ [ J C g u.m.XX[.Z.u j j.].XXJ J J J J J J J D j d 3 ",
"u m.m.u F _ [ J C 2 e u XX'.5.2 3 2.`.XX9 9 9 9 9 9 9 9 9 3 3 1 ",
"3 W i.u J J J J ~ q m z %XQ.4.j z g.!.%XJ [ ^ _ ~ g u.m.m.p.( 4 ",
"3 b w.t J J [ [ ~ > = * # + < J J < + # * ; B [ ~ g u.m.m.m.m.u ",
"3 l b 7 J [ ^ _ ~ $ o .   X - J J - X   . O ; ^ ~ g u.m.m.m.m.u ",
"1 3 3 1 9 9 7 8 7 : & % % & , 9 9 , & % % & , 7 7 2 e u u u u 2 "
};
