/* XPM */
static char *result[] = {
/* columns rows colors chars-per-pixel */
"32 32 233 2 ",
"   c gray2",
".  c #060606",
"X  c #070707",
"o  c gray1",
"O  c #020202",
"+  c #010101",
"@  c black",
"#  c #040404",
"$  c #010202",
"%  c #000101",
"&  c #050606",
"*  c #060505",
"=  c #0B0505",
"-  c #090202",
";  c #080101",
":  c #0B0404",
">  c #0C0505",
",  c #0C0606",
"<  c #100405",
"1  c #300001",
"2  c #390000",
"3  c #3A0000",
"4  c #3B0101",
"5  c #3A0001",
"6  c #350101",
"7  c #120505",
"8  c #0A0404",
"9  c #050404",
"0  c #120506",
"q  c #380401",
"w  c #4D1001",
"e  c #581100",
"r  c #700E00",
"t  c #650100",
"y  c #630000",
"u  c #720C00",
"i  c #610100",
"p  c #3F0001",
"a  c #300101",
"s  c #0A0303",
"d  c #6C0C00",
"f  c #CB5C00",
"g  c #E87600",
"h  c #DF6B00",
"j  c #891E00",
"k  c #7B1100",
"l  c #7B1000",
"z  c #7B0F00",
"x  c #8A1D00",
"c  c #D25E00",
"v  c #881B00",
"b  c #620100",
"n  c #660100",
"m  c #F17A00",
"M  c #FF8800",
"N  c #EF8100",
"B  c #ED8000",
"V  c #ED7F00",
"C  c #ED7900",
"Z  c #ED7800",
"A  c #EF7A00",
"S  c #FD8500",
"D  c #E06A00",
"F  c #730D00",
"G  c #070000",
"H  c #040303",
"J  c #0E0202",
"K  c #3B0000",
"L  c #640000",
"P  c #881C00",
"I  c #FF8B00",
"U  c #FF9200",
"Y  c #FF9300",
"T  c #FF9100",
"R  c #FF8A00",
"E  c #F07A00",
"W  c #851D00",
"Q  c #400100",
"!  c #0E0001",
"~  c #060000",
"^  c #010000",
"/  c #470100",
"(  c #831B00",
")  c #E36F00",
"_  c #FE8F00",
"`  c #FF9000",
"'  c #FE8800",
"]  c #DF6A00",
"[  c #6E0D00",
"{  c #3E0000",
"}  c #300000",
"|  c #0C0101",
" . c #690C00",
".. c #CE5C00",
"X. c #EF7900",
"o. c #FD8E00",
"O. c #F07B00",
"+. c #891D00",
"@. c #450000",
"#. c #310101",
"$. c #0F0303",
"%. c #480200",
"&. c #740E00",
"*. c #8B1E00",
"=. c #FE8700",
"-. c #780D00",
";. c #5E0000",
":. c #170505",
">. c #3C0001",
",. c #8B1F00",
"<. c #0D0505",
"1. c #080203",
"2. c #0D0101",
"3. c #2E0001",
"4. c #350001",
"5. c #420000",
"6. c #3C0201",
"7. c #040505",
"8. c #030202",
"9. c #070101",
"0. c #0E0101",
"q. c #360200",
"w. c #4B0E00",
"e. c #531000",
"r. c #581000",
"t. c #710F00",
"y. c #FE8600",
"u. c #CD5E00",
"i. c #480C00",
"p. c #080001",
"a. c #020303",
"s. c #2F0000",
"d. c #7D1B00",
"f. c #DB6A00",
"g. c #E87800",
"h. c #EC7800",
"j. c #FD8800",
"k. c #E16D00",
"l. c #350100",
"z. c #E06B00",
"x. c #FF8900",
"c. c #3F0000",
"v. c #0D0000",
"b. c #750E00",
"n. c #DE6900",
"m. c #FD8600",
"M. c #380000",
"N. c #610200",
"B. c #8A1F00",
"V. c #400000",
"C. c #060707",
"Z. c #440000",
"A. c #740F00",
"S. c #ED7600",
"D. c #690100",
"F. c #5A0000",
"G. c #2E0000",
"H. c #060101",
"J. c #0F0202",
"K. c #360000",
"L. c #460000",
"P. c #841C00",
"I. c #F07900",
"U. c #EC7600",
"Y. c #CF5C00",
"T. c #6F0C00",
"R. c #100404",
"E. c #7E1B00",
"W. c #E26D00",
"Q. c #7A1000",
"!. c #700F00",
"~. c #410200",
"^. c #2F0101",
"/. c #310001",
"(. c #530C00",
"). c #ED7700",
"_. c #790E00",
"`. c #620000",
"'. c #0F0101",
"]. c #090303",
"[. c #410000",
"{. c #620200",
"}. c #7A0F00",
"|. c #7C1100",
" X c #891C00",
".X c #FE8E00",
"XX c #771000",
"oX c #E26E00",
"OX c #FF8F00",
"+X c #3C0101",
"@X c #5F0000",
"#X c #670000",
"$X c #690000",
"%X c #770D00",
"&X c #5D0000",
"*X c #3E0001",
"=X c #650000",
"-X c #861B00",
";X c #E06C00",
":X c #DD6800",
">X c #030404",
",X c #120404",
"<X c #400101",
"1X c #600000",
"2X c #680000",
"3X c #780E00",
"4X c #E16B00",
"5X c #871B00",
"6X c #130505",
"7X c #400001",
"8X c #600100",
"9X c #740D00",
"0X c #8C2000",
"qX c #721100",
"wX c #330000",
"eX c #3A0101",
"rX c #6B0200",
"tX c #110404",
"yX c #340101",
"uX c #6F0E00",
"iX c #C55A00",
"pX c #500F00",
"aX c #0D0001",
"sX c #110505",
"dX c #080202",
"fX c #100303",
"gX c #370301",
"hX c #480D00",
"jX c #320301",
"kX c #350000",
"lX c #090203",
"zX c #070606",
"xX c white",
/* pixels */
"  . X X X X X X X X X X X . o O O O O O O O O O O O O O O O + @ ",
"o o . . . . . X X X . X X X .         # # # # # # # # # # # # O ",
"#   . o o o o . X . #   . . .   #     O O + + + + O o o o o o # ",
"o   .   # # #   . .   o o o o o o $ + % + $ $ $ $ O #   . .   o ",
"@ + o   o o o o o o . . . & * = - ; ; - : > > > = * # & X X X . ",
"@ @ + # #   . . . . X X X , < 1 2 3 3 3 4 4 4 5 6 7 8 9 . X . . ",
"@ @ @ + o . X X X X X X 0 q w e r t y y y y t u i p a s #   o o ",
"@ @ @ O # X X X X X X , 6 d f g h j k k l z x c v b 3 - #   # # ",
"@ @ + # # . X X X X & > 4 n x m M N B V C Z A S D F 2 G % + + + ",
"@ + O #     . . .   H J K L P A I U Y Y U U T R E W Q ! ~ ^ @ @ ",
"O # # O + + + + + $ s a / ( ) _ T U U U U U U ` ' ] [ { } | + @ ",
"  o O @ @ @ @ @ @ $ - 2  ...X.o.T U U U U U U U T O.+.b @.#.$.O ",
"  # # O + + + O o   = a %.&.*.A R T U U U U U U T =.] -.;.@.a : ",
"O + O   .         * > :.>.L P X.R T U U U U U U T I O.,.-.i 5 <.",
"O O o . X .     1.2.3.4.5.F ] ' ` U U U U U U U U T o.O.D ( 6.> ",
"  # #   7.8.9.0.q.w.e.r.t.,.O.T U U U U U U U U U U T R y.u.i.p.",
". o o o a.; s.Q d.f.g.g.h.A j.T U U U U U U U U U U ` =.k.d.l.G ",
"  # # # # : 2 r z.M x.T U U T U U U U U U U U U U T R E W c.v.@ ",
"o o o o a.- 3 b.n.E m.` U U U U U U U U U U U U U T =.] F M.~ @ ",
"    . . & : 5 N.F B.X.R T U U U U U U U U U U U U U A P n V.0.^ ",
"# . X X C., #.V.Z.A.S.x.T U U U U U U U U U U U T T O.+.D.F.G.H.",
"    . . . . J.K.L.P.I.R T U U U U U U U U U U T j.A U.Y.T.{ 0.^ ",
"o o o o o   R.6.E.W.M ` T U U T U U U U U U T T A *.Q.!.~.^.9.$ ",
"# # #   9 R./.(.f S.).A ' T T j.A Z Z Z Z A ' T Z _.`.{ '.8 *   ",
"+ O o   ].a [.{.}.|.}. Xk..XT O.,.}.XXXX}. XoXOXO.+.t 3 ; a.  . ",
"+ O o   = a +X@Xy y #X$X+.O.x.h %X&X*X*X;.=X-X;XX.:X&.3 : >XO o ",
"# #   7.H 8 ,X6 4 <X1X2X3Xn.4X5Xn <X6X7 6 7X8X9X0X] qXwX9.O O # ",
"o o   o O a.H = > 7 eX1XrX_.b.n @XeX, . = tXyX{ uXiXpXaXO     o ",
"# . .   # # #   & X sXeX1X;.{ 3 3 a = o a.o dXfXgXhXjX= 7.    # ",
"o . . o o o o o o .   0.kXkX0.9.; 9.8.# # # # o dXlX, zXo o o o ",
"+ #   # # # # # # # o O dXdXO $ $ $ O o o o o # # #     # # # # ",
"@ + O O O O O O O o #                       .   o O O O O O O O "
};
