/* XPM */
static char *result[] = {
/* columns rows colors chars-per-pixel */
"32 32 158 2 ",
"   c #030303",
".  c #0B0C0C",
"X  c #020F18",
"o  c #04141E",
"O  c #021623",
"+  c #032135",
"@  c #1C2F3C",
"#  c #423832",
"$  c #2A6814",
"%  c #49423C",
"&  c #344047",
"*  c #2D5943",
"=  c #155669",
"-  c #0C517E",
";  c #267970",
":  c #564D45",
">  c #837F7E",
",  c #43802D",
"<  c #49873A",
"1  c #42864A",
"2  c #87D577",
"3  c #054A90",
"4  c #045D93",
"5  c #02609A",
"6  c #0F649B",
"7  c #037190",
"8  c #1556A3",
"9  c #1469A1",
"0  c #197AAB",
"q  c #036FB1",
"w  c #0165BF",
"e  c #0471B3",
"r  c #0971B3",
"t  c #0676BA",
"y  c #0975B9",
"u  c #0E78BC",
"i  c #1A7CB4",
"p  c #127BBF",
"a  c #1C7DB8",
"s  c #277CB3",
"d  c #207FB8",
"f  c #587C89",
"g  c #6D7F8C",
"h  c #0867CA",
"j  c #006CCE",
"k  c #0D7EC3",
"l  c #117CC0",
"z  c #0065D3",
"x  c #0B67D1",
"c  c #0B68D0",
"v  c #146AD2",
"b  c #2E72C6",
"n  c #2E73C9",
"m  c #3475C7",
"M  c #3976C6",
"N  c #3374C8",
"B  c #088CB8",
"V  c #2D8FB3",
"C  c #2282BA",
"Z  c #3087BD",
"A  c #3188BD",
"S  c #2F92B5",
"D  c #0FA1AB",
"F  c #1DA8B2",
"G  c #31B8BC",
"H  c #4C8A80",
"J  c #4D8092",
"K  c #7EA0BC",
"L  c #0793C7",
"P  c #029CCD",
"I  c #1698CC",
"U  c #138DD6",
"Y  c #0097D1",
"T  c #009ED3",
"R  c #089ED0",
"E  c #1492DC",
"W  c #2A89C5",
"Q  c #2C8AC6",
"!  c #338CC3",
"~  c #3A90C9",
"^  c #17AAC9",
"/  c #00A0D4",
"(  c #10A6D6",
")  c #14A8D3",
"_  c #23A0CA",
"`  c #25B2C3",
"'  c #2BAED8",
"]  c #32AED6",
"[  c #2EB0D9",
"{  c #1797E1",
"}  c #1D96E2",
"|  c #199BE6",
" . c #4297C7",
".. c #41A2CB",
"X. c #42AFCF",
"o. c #4DBBC6",
"O. c #48B8DE",
"+. c #79A5C0",
"@. c #43A8E1",
"#. c #43ADEA",
"$. c #56C1D2",
"%. c #91A8BD",
"&. c #B5BEBB",
"*. c #8AD886",
"=. c #8FDE94",
"-. c #8EE696",
";. c #9CEB92",
":. c #A5F583",
">. c #AAF48A",
",. c #B5F39C",
"<. c #80DDA5",
"1. c #A5E1A5",
"2. c #D4D0BB",
"3. c #99B8CE",
"4. c #BDCCD7",
"5. c #BFD2DF",
"6. c #B4D4EA",
"7. c #B9D7EF",
"8. c #B9DAE8",
"9. c #BCE0EE",
"0. c #CACBC5",
"q. c #D0D4CF",
"w. c #D2D6D0",
"e. c #D1D8D8",
"r. c #DEDED9",
"t. c #E3D7CC",
"y. c #F7DDC7",
"u. c #E0DED9",
"i. c #C5F2C4",
"p. c #DBE8D7",
"a. c #E3E0C2",
"s. c #F2E3CC",
"d. c #FDE2CA",
"f. c #F7E5D3",
"g. c #FBE5D3",
"h. c #F5E6DC",
"j. c #F5E9DE",
"k. c #FCECDB",
"l. c #C7DBE6",
"z. c #C9DDEA",
"x. c #DADDE4",
"c. c #C9E7E4",
"v. c #C5E4EA",
"b. c #CCE2EB",
"n. c #CDE7F4",
"m. c #CFE9F6",
"M. c #DDE8F1",
"N. c #EBE6E3",
"B. c #E3ECEB",
"V. c #F6EDE6",
"C. c #FBF2E7",
"Z. c #F5F2EF",
"A. c #FBF2EA",
"S. c #E1E8F2",
"D. c #F4F5F5",
"F. c #FAF9F6",
"G. c #F7F7F8",
"H. c #FDFDFD",
/* pixels */
"q q q e q e e q q e q e e e a a t e t e d d r q q q q y y y r t ",
"q t y p p p p q p p C u u A l.D.#.#.#.#.H.z.! k k k l l p p y y ",
"q y u p p p p e p p p p p A z.G.m.m.m.m.G.z.Z k l l p p p u y y ",
"q p p p p p p e p p p p u A z.F.F.A.g.f.u.D.M.Q l l l p l u y q ",
"q p p p p p p q p p p p p A b.A.d.d.y.y.d.j.Z.Q l p l l p p u q ",
"r u u u p u p q u p p u u A b.C.d.: d.d.% h.N.W u u u u u u u q ",
"q q r q e q q q q q e q q A b.C.y.d.d.d.d.h.V.C r q q r q r q q ",
"q p u p u r y p p p p u p ! b.F.d.d.d.d.d.j.D.W k k p y q u u q ",
"q p p p u r u l p a C ;.>.,.p.B.C.V.f.s.D.B.B. .p p p y q l l q ",
"q p u p u q u p p S =.>.-.2 H J 8.n.c.v.9.X.o.i.p p p u q l p r ",
"q y y y p r u p p S =.:.G 2 * = [ [ [ [ ' ^ F ;.p l l u r l p q ",
"q q q q q q q r 0 ;.>.` ^ 2 ; 7 / / / / P P D 1.q q r q q l l q ",
"r E t p p p p l i , $ 2.a.-.` / / / / T T Y B = { k t k q l l e ",
"e E t p l p p l i 1 < 2.p.<.` / / T T / T P B f { | | | q l l e ",
"t E t u p p p p p J 1 2.9.$.) / / T T T T R _ &.| | | | e k l e ",
"e E t p p l l p p V *.9.9.O.( / T / T T T R ] r.| | | | e k l q ",
"q q q r q r q q q e e 6.8.0 L Y P P Y Y Y I ..u.| | | | q k k e ",
"q p p l l l l y e t E 7.6.3 w j j j j j z c b x.E E E E q k k e ",
"q l p p p p u l u t E 7.6.8 h z z z z z z x N x.t t t t q e e q ",
"r l l p p l l u p t E 3.%.b x n N N N N n x n S.p p u p u u u q ",
"q y y q e e e q e t E +.K n x m k k k l N x N l p p p p p p p e ",
"e | | e h k L l p e E | } n x m k k k u N v N l u u u p u u u q ",
"t | | t y k l L u t E | } n x m q q e r M N M r q r q q r q q q ",
"t | | e y k k l p t E | } M m M u u l u t.4.~ k k k k k k k k q ",
"e | | e t k L l u t E | | @.w.k.y p p p d.e. .l p k l k l p p q ",
"t | | t t k l l p t E | | @.w.k.y p p p g.q. .l p p p p l p y q ",
"e | | t t k l l u y E | | @.q.k.y p p p d.e. .l p p p p p y y q ",
"t | | e l l l l p q q y y Z 0.k.q q q w Z.l.s q q e e e q q q q ",
"q k E t l l l l k q u y y ! 5.u.u p p p > & 9 L k t E | | E k e ",
"q k U e l l l l k q u l l s g # p p p p   o - 6 k t E | | | | t ",
"q t t e p l l l k r u l u 9 @ . p l p l   . o O k t E | | | | e ",
"q q q q e q q w q q q q q 4 o . X + 4 r 5 5 5 5 e e e t e t e e "
};
