/* XPM */
static char *result[] = {
/* columns rows colors chars-per-pixel */
"32 32 200 2 ",
"   c gray2",
".  c #060606",
"X  c #070707",
"o  c #020202",
"O  c gray1",
"+  c #010101",
"@  c black",
"#  c #070706",
"$  c #060605",
"%  c #050504",
"&  c #040404",
"*  c #070709",
"=  c #060608",
"-  c #07070A",
";  c #08070A",
":  c #070608",
">  c #0E0C1A",
",  c #100E21",
"<  c #110F21",
"1  c #0F0E1E",
"2  c #07060B",
"3  c #040406",
"4  c #030306",
"5  c #030205",
"6  c #030305",
"7  c #050408",
"8  c #0E0D1D",
"9  c #100E22",
"0  c #121025",
"q  c #100F21",
"w  c #0F0D1D",
"e  c #070609",
"r  c #020204",
"t  c #040408",
"y  c #110F24",
"u  c #100E24",
"i  c #110E24",
"p  c #110F22",
"a  c #09080D",
"s  c #100E20",
"d  c #141227",
"f  c #211F32",
"g  c #242335",
"h  c #2F2D3F",
"j  c #2F2D40",
"k  c #2B293C",
"l  c #151328",
"z  c #100E23",
"x  c #0D0C1A",
"c  c #040308",
"v  c #232134",
"b  c #8B8A8F",
"n  c #A2A1A4",
"m  c #C3C3C6",
"M  c #E1E1E3",
"N  c #C9C9CE",
"B  c #262436",
"V  c #0A0A10",
"C  c #040307",
"Z  c #0E0D1E",
"A  c #2D2C3E",
"S  c #DBDBDD",
"D  c gainsboro",
"F  c #5A5A5A",
"G  c #E7E7E7",
"H  c #E4E4E6",
"J  c #444353",
"K  c #97969F",
"L  c #262433",
"P  c #050507",
"I  c #020203",
"U  c #0D0B1A",
"Y  c #E5E5E7",
"T  c #E1E1E1",
"R  c #3F3F3F",
"E  c gray88",
"W  c #E8E7EA",
"Q  c #4C4A5A",
"!  c #413F50",
"~  c #181628",
"^  c #000001",
"/  c #0E0C1F",
"(  c #E6E6E8",
")  c #E6E6E6",
"_  c gray34",
"`  c gray89",
"'  c #FEFDFE",
"]  c #E9E9EB",
"[  c #2A2838",
"{  c #050508",
"}  c #030307",
"|  c #282635",
" . c #C9C8CD",
".. c #E2E2E4",
"X. c #E4E4E4",
"o. c #FCFCFB",
"O. c gray99",
"+. c #CBCACF",
"@. c #282735",
"#. c #08080C",
"$. c #2A2939",
"%. c #5E5C6B",
"&. c #EBEBED",
"*. c white",
"=. c #E6E5E8",
"-. c #464555",
";. c #272534",
":. c #0B0A0E",
">. c #08070B",
",. c #353442",
"<. c #CDCDD1",
"1. c #FDFDFD",
"2. c #42404F",
"3. c #09090F",
"4. c #0A090D",
"5. c #2B2A37",
"6. c #909094",
"7. c #F4F4F4",
"8. c #CCCCD0",
"9. c #262533",
"0. c #000002",
"q. c #1D1C2A",
"w. c #848488",
"e. c #B6B6B6",
"r. c #F6F6F5",
"t. c #434150",
"y. c #06050A",
"u. c #09090D",
"i. c #2F2D3C",
"p. c #9E9DA0",
"a. c #ECECEC",
"s. c #FEFEFE",
"d. c #CDCCD0",
"f. c #030302",
"g. c #1E1C2B",
"h. c #828286",
"j. c #ACACAC",
"k. c #E4E3E6",
"l. c #2C2A3A",
"z. c #020205",
"x. c #06060A",
"c. c #0F0E1F",
"v. c #302F3F",
"b. c #949496",
"n. c #B7B7B7",
"m. c gray96",
"M. c #434250",
"N. c #050509",
"B. c #100F1F",
"V. c #2E2D3E",
"C. c #858589",
"Z. c gray67",
"A. c #CDCCD1",
"S. c #020104",
"D. c #020201",
"F. c #858489",
"G. c #A2A2A2",
"H. c gray68",
"J. c gray93",
"K. c #2D2B3B",
"L. c #000003",
"P. c #212032",
"I. c #828287",
"U. c #929294",
"Y. c #919194",
"T. c #A5A5A7",
"R. c #EAEAEA",
"E. c gray97",
"W. c #07070B",
"Q. c #110F20",
"!. c #1F1E2E",
"~. c #222030",
"^. c #222033",
"/. c #313040",
"(. c #8D8C91",
"). c #A5A5A8",
"_. c #DADADC",
"`. c #E3E3E5",
"'. c #E2E2E5",
"]. c #2A2839",
"[. c #040405",
"{. c #030308",
"}. c #0F0D20",
"|. c #131126",
" X c #1F1D2E",
".X c #232131",
"XX c #2E2C3C",
"oX c #2E2D3F",
"OX c #2D2B3C",
"+X c #131121",
"@X c #040407",
"#X c #060609",
"$X c #08070C",
"%X c #0E0C20",
"&X c #030207",
"*X c #08080A",
"=X c #08080B",
"-X c #0F0D1E",
";X c #010102",
":X c #050506",
/* pixels */
"  . X X X X X X . o . X X . O o o o o o o + + + o o o o o o + @ ",
"O O . . . . . X X . . X X # $   %     & & & & & & & & & & & & o ",
"&   . O O O O . X * = - ; ; ; * &     o + + + + + o O O O O O & ",
"O   .   & & &   : > , < < < < 1 2 3 4 5 6 6 o o o o &   . .   O ",
"@ + O   O O O O O 7 8 9 0 0 0 0 q , , , , w e       & . X X X . ",
"@ @ + & &   . . .   r t , 0 0 y y u u i 0 p a .     & & . X . . ",
"@ @ @ + O . X X X   @ r s 0 d f g h j k l z x 6 + o O O &   O O ",
"@ @ @ o & X X X . + @ c , y v b n m M N j B V o o o O o &   & & ",
"@ @ + & & . X X   + C Z 0 z A S D F G H J K L P     O + + + + + ",
"@ + o &     .   + I U 0 0 u h Y T R E W Q ! ~ * & .   + @ @ @ @ ",
"o & & o + + + + + ^ c 8 , / h ( ) _ ` ' ] N [ { . X . O + + + @ ",
"  O o @ @ @ @ @ @ + o 3 3 } |  ...X.o.O.] +.@.6   .   & & & & o ",
"  & & o + + + o O   . $ $   #.$.%.&.*.=.-.;.:.& o + + + + o O & ",
"o + o   .           . X X . >.,.<.1.*.( 2.3.I + @ @ @ @ @ + O   ",
"o o O . X .     O o O . . 4.5.6.7.*.*.1.8.9.0.@ @ + + + o & &   ",
"  & &     o o + + o   $ 3 q.w.e.r.*.*.*.W t.y.+ o & & & & o + + ",
". O O O O o + + o &     u.i.p.a.s.*.*.*.1.d.| 3 & o + + + @ @ @ ",
"  & & & & & & & & f.O 7 g.h.j.7.*.*.*.*.*.k.l.z.f.+ @ @ @ @ @ @ ",
"O O O O O O o O o o x.c.v.b.n.m.*.*.*.*.*.( M.u.& & o + + + @ @ ",
"    . . .   O     N.B.V.C.Z.a.s.*.*.*.*.*.1.A.| S.D.& & & & o @ ",
"& . X X X .   $ ; Z f F.G.H.J.*.*.*.*.*.*.*.H K.L.@ + o O   & + ",
"    . . . . O O e Z P.I.U.Y.T.R.E.*.*.*.*.*.H K.S.+ o o & o + @ ",
"O O O O O     & O W.Q.!.~.^./.(.)._.`.'.'.H N ].{   & & & o o + ",
"& & &   & & o + o [.3 z.{.}.|. X.Xl.XXoXoXOX[ +Xe   o o o &     ",
"+ o O   O O o o O   $   @X, , c #Xe $X}.%X&X3 P o + + + o O   . ",
"+ o O               . . e < , 6 . X *Xp , 3 f.f.o + o & & & o O ",
"& &     O   . . O O O & 3 , , 6   X =Xp p *   & & & & o o o o & ",
"O O   O o O O . . .   O 6 -Xw r O . *X-X-X*   O O O O o o     O ",
"& . .   & & &   . X X & [.= P ;X&   :X@X3 O O & & &     &     & ",
"O . . O O O O O O .   o + + + + + o o & & & & O O O . . O O O O ",
"+ &   & & & & & & & O o o o o o o o o O O O O & & &     & & & & ",
"@ + o o o o o o + + &                       o   O o o o o o o o "
};
