/* XPM */
static char *result[] = {
/* columns rows colors chars-per-pixel */
"32 32 152 2 ",
"   c #030303",
".  c #0B0B0C",
"X  c #020F18",
"o  c #01121C",
"O  c #021623",
"+  c #032135",
"@  c #1C2F3C",
"#  c #423832",
"$  c #2A6814",
"%  c #49423C",
"&  c #323D43",
"*  c #2D5943",
"=  c #155669",
"-  c #014974",
";  c #267970",
":  c #564D45",
">  c #837F7E",
",  c #488739",
"<  c #408447",
"1  c #87D577",
"2  c #054A90",
"3  c #045D93",
"4  c #1A7786",
"5  c #02609A",
"6  c #0B649B",
"7  c #037190",
"8  c #1556A3",
"9  c #1469A1",
"0  c #1A7FAB",
"q  c #036FB1",
"w  c #0471B4",
"e  c #0B73B5",
"r  c #0675B9",
"t  c #0975B9",
"y  c #0E78BC",
"u  c #127BBF",
"i  c #1C7DB8",
"p  c #277CB3",
"a  c #207FB8",
"s  c #587C89",
"d  c #6D7F8C",
"f  c #0867CA",
"g  c #006CCE",
"h  c #0D7EC3",
"j  c #127CC0",
"k  c #0065D3",
"l  c #0B67D1",
"z  c #0B68D0",
"x  c #146AD2",
"c  c #2E72C6",
"v  c #2E73C9",
"b  c #3475C7",
"n  c #3976C6",
"m  c #3374C8",
"M  c #088CB8",
"N  c #2085A7",
"B  c #2282BA",
"V  c #2F87BC",
"C  c #3184B6",
"Z  c #3186B9",
"A  c #2F92B5",
"S  c #0FA1AB",
"D  c #1DA8B2",
"F  c #31B8BC",
"G  c #4C8A80",
"H  c #4D8092",
"J  c #7A9DB7",
"K  c #0D81C8",
"L  c #0793C7",
"P  c #029CCD",
"I  c #1698CC",
"U  c #128DD5",
"Y  c #0097D1",
"T  c #009ED3",
"R  c #089ED0",
"E  c #1593DD",
"W  c #1896DC",
"Q  c #2A86C1",
"!  c #2D89C5",
"~  c #348FC6",
"^  c #3D8EC3",
"/  c #3D92C9",
"(  c #17AAC9",
")  c #00A0D4",
"_  c #12A7D5",
"`  c #23A0CA",
"'  c #25B2C3",
"]  c #2BAED8",
"[  c #32AED6",
"{  c #2EB0D9",
"}  c #1797E1",
"|  c #199BE6",
" . c #3FA6E1",
".. c #4297C7",
"X. c #42A9CD",
"o. c #4DBBC6",
"O. c #48B8DE",
"+. c #43ACE9",
"@. c #56C1D2",
"#. c #91A8BD",
"$. c #B5BEBB",
"%. c #89D684",
"&. c #8FDE94",
"*. c #9CE98F",
"=. c #8EE696",
"-. c #9CEB92",
";. c #A5F583",
":. c #AAF48A",
">. c #B5F39C",
",. c #80DDA5",
"<. c #A5E1A5",
"1. c #D4D0BB",
"2. c #97B3C8",
"3. c #BBC9D3",
"4. c #B5D3E9",
"5. c #B9DAE9",
"6. c #BCE0EE",
"7. c #CDCCC6",
"8. c #D0CFC8",
"9. c #D9D5C0",
"0. c #CED5D5",
"q. c #E3D7CC",
"w. c #F6DDC7",
"e. c #E0DED9",
"r. c #C5F2C4",
"t. c #DBE8D7",
"y. c #E3E0C2",
"u. c #F2E3CC",
"i. c #FDE2CA",
"p. c #E6E1DE",
"a. c #F7E5D3",
"s. c #FBE5D3",
"d. c #F5E6DC",
"f. c #FCECDB",
"g. c #C6D9E5",
"h. c #DADDE4",
"j. c #C5E4EA",
"k. c #CCE3ED",
"l. c #CDE6F3",
"z. c #CFE8F4",
"x. c #D8E7F2",
"c. c #EBE6E3",
"v. c #E3ECEB",
"b. c #F6EDE6",
"n. c #FBF2E7",
"m. c #F5F2EF",
"M. c #FBF2EA",
"N. c #E1E8F2",
"B. c #F4F5F6",
"V. c #FAF9F6",
"C. c #F7F7F8",
"Z. c #FDFDFD",
/* pixels */
"q q q w q w w q w e i a q q q e a i e r r w q w q w w t t t r w ",
"q r t u u u u q j / l.Z./ ~ +.+.B.l. .| | E r h h h j j u y t t ",
"q t y u u u u w j ..g.B.l.g.z.z.C.l.+.| | E r h h u u u u y t t ",
"q u u u u u u q ! x.C.p.s.s.M.V.C.z.+.| | E r y u u u u u u t q ",
"q u u u u u u q ! m.i.i.i.i.i.i.m.z.+.} } E r u u u j j u u t q ",
"e y y u u u y q Q c.d.% i.i.: i.M.z.+.E E U w y y y y y y y y q ",
"q q q q w w q q B b.d.i.i.i.i.w.M.k.~ r r w q q q e q e q q q q ",
"e y y u y w e u Q m.d.i.i.i.i.i.M.k...q h h h h h h j e q u u q ",
"q u u u u q u u ..v.v.M.u.a.n.n.v.t.>.:.-.B B u y u u t q j u q ",
"q y u y u q y u r.o.X.5.j.k.k.6.H G 1 =.:.&.A u u u u y q j j q ",
"q e e y u q u j -.D ( ] { { { ] = * 1 F ;.=.A u j j j u w u j q ",
"q q q q q q q q <.S P T ) T ) ) 7 ; 1 R F :.*.i q q q q q u u w ",
"w E r u j u u u = M Y T T T T ) ) ' =.y.1.$ $ W } h h y e j j w ",
"r E r y u j j u s M R T ) T ) T ) ' ,.t.9., < ] } | } | q j j q ",
"w E r y u u u u $.` R T ) ) T ) ) _ @.j.9.< 4 E | | | | w j j w ",
"r E r y u j j u t.[ R T T T ) T ) _ O.6.j.%.N } | | | | w h j w ",
"q w w w w q w w e.X.I Y Y Y Y Y T L 0 4.4.y q W | | | | q h h w ",
"q u u u u u u t h.c z g g g g g g f 2 4.4.r q U E E E E q h h q ",
"q u u u u u u y h.c l k k k k k k f 8 4.4.w q w t t r r q q w q ",
"w u u u u u u u N.b l v m b b c c z c #.2.e q y y u u y y h y q ",
"q w r q q w w q w m l b | E h w v z m J J q q y u u j j j u u q ",
"r | | r f h K h u b x b | E K w m l m u y r q y y y u y y y y q ",
"w | | w t h h h j n m n | } E w m z v e q q q q q q q q q q e q ",
"r | | r j h h j j Z 3.q.| | | r n b n u y u h h j j h h h h h q ",
"r | | r r M j h u Z 0.s.| | | r s.8...j j j j u j h j h j j y q ",
"w | | r r K j j y Z 0.i.| | | w f.8.^ j j u u u j j j u j y t q ",
"r | | w t h j j y Z 0.i.| | | r f.8.Z j j j u u j j j j y t t q ",
"w | | r j h j j y V g.m.r r w w f.7.C w w w w w q q e q q q q q ",
"q h E r j j j u h 6 & > t t e y e.g.~ u u j h h h r E | | } h q ",
"q h U w j j j j 6 - o   u j j u # d p u u j u j h r E | | | | r ",
"q r h q j j j h O O .   u u j u . @ 9 j j u j h h r E | | | | r ",
"q q q q w q q q 5 5 3 5 q 3 + X   O 3 q q w q q q q w w r r w q "
};
