/* XPM */
static char *result[] = {
/* columns rows colors chars-per-pixel */
"32 32 200 2 ",
"   c black",
".  c #010101",
"X  c #020202",
"o  c gray1",
"O  c #060606",
"+  c #070707",
"@  c gray2",
"#  c #040404",
"$  c #050504",
"%  c #060605",
"&  c #070706",
"*  c #070709",
"=  c #08070A",
"-  c #07070A",
";  c #060608",
":  c #030305",
">  c #030205",
",  c #030306",
"<  c #040406",
"1  c #07060B",
"2  c #0F0E1E",
"3  c #110F21",
"4  c #100E21",
"5  c #0E0C1A",
"6  c #070608",
"7  c #070609",
"8  c #0F0D1D",
"9  c #100F21",
"0  c #121025",
"q  c #100E22",
"w  c #0E0D1D",
"e  c #050408",
"r  c #09080D",
"t  c #110F22",
"y  c #110E24",
"u  c #100E24",
"i  c #110F24",
"p  c #040408",
"a  c #020204",
"s  c #0D0C1A",
"d  c #100E23",
"f  c #151328",
"g  c #2B293C",
"h  c #2F2D40",
"j  c #2F2D3F",
"k  c #242335",
"l  c #211F32",
"z  c #141227",
"x  c #100E20",
"c  c #0A0A10",
"v  c #262436",
"b  c #C9C9CE",
"n  c #E1E1E3",
"m  c #C3C3C6",
"M  c #A2A1A4",
"N  c #8B8A8F",
"B  c #232134",
"V  c #040308",
"C  c #050507",
"Z  c #262433",
"A  c #97969F",
"S  c #444353",
"D  c #E4E4E6",
"F  c #E7E7E7",
"G  c #5A5A5A",
"H  c gainsboro",
"J  c #DBDBDD",
"K  c #2D2C3E",
"L  c #0E0D1E",
"P  c #040307",
"I  c #181628",
"U  c #413F50",
"Y  c #4C4A5A",
"T  c #E8E7EA",
"R  c gray88",
"E  c #3F3F3F",
"W  c #E1E1E1",
"Q  c #E5E5E7",
"!  c #0D0B1A",
"~  c #020203",
"^  c #050508",
"/  c #2A2838",
"(  c #E9E9EB",
")  c #FEFDFE",
"_  c gray89",
"`  c gray34",
"'  c #E6E6E6",
"]  c #E6E6E8",
"[  c #0E0C1F",
"{  c #000001",
"}  c #282735",
"|  c #CBCACF",
" . c gray99",
".. c #FCFCFB",
"X. c #E4E4E4",
"o. c #E2E2E4",
"O. c #C9C8CD",
"+. c #282635",
"@. c #030307",
"#. c #0B0A0E",
"$. c #272534",
"%. c #464555",
"&. c #E6E5E8",
"*. c white",
"=. c #EBEBED",
"-. c #5E5C6B",
";. c #2A2939",
":. c #08080C",
">. c #09090F",
",. c #42404F",
"<. c #FDFDFD",
"1. c #CDCDD1",
"2. c #353442",
"3. c #08070B",
"4. c #000002",
"5. c #262533",
"6. c #CCCCD0",
"7. c #F4F4F4",
"8. c #909094",
"9. c #2B2A37",
"0. c #0A090D",
"q. c #06050A",
"w. c #434150",
"e. c #F6F6F5",
"r. c #B6B6B6",
"t. c #848488",
"y. c #1D1C2A",
"u. c #CDCCD0",
"i. c #FEFEFE",
"p. c #ECECEC",
"a. c #9E9DA0",
"s. c #2F2D3C",
"d. c #09090D",
"f. c #030302",
"g. c #020205",
"h. c #2C2A3A",
"j. c #E4E3E6",
"k. c #ACACAC",
"l. c #828286",
"z. c #1E1C2B",
"x. c #434250",
"c. c gray96",
"v. c #B7B7B7",
"b. c #949496",
"n. c #302F3F",
"m. c #0F0E1F",
"M. c #06060A",
"N. c #020201",
"B. c #020104",
"V. c #CDCCD1",
"C. c gray67",
"Z. c #858589",
"A. c #2E2D3E",
"S. c #100F1F",
"D. c #050509",
"F. c #000003",
"G. c #2D2B3B",
"H. c gray93",
"J. c gray68",
"K. c #A2A2A2",
"L. c #858489",
"P. c gray97",
"I. c #EAEAEA",
"U. c #A5A5A7",
"Y. c #919194",
"T. c #929294",
"R. c #828287",
"E. c #212032",
"W. c #2A2839",
"Q. c #E2E2E5",
"!. c #E3E3E5",
"~. c #DADADC",
"^. c #A5A5A8",
"/. c #8D8C91",
"(. c #313040",
"). c #222033",
"_. c #222030",
"`. c #1F1E2E",
"'. c #110F20",
"]. c #07070B",
"[. c #131121",
"{. c #2D2B3C",
"}. c #2E2D3F",
"|. c #2E2C3C",
" X c #232131",
".X c #1F1D2E",
"XX c #131126",
"oX c #0F0D20",
"OX c #030308",
"+X c #040405",
"@X c #030207",
"#X c #0E0C20",
"$X c #08070C",
"%X c #060609",
"&X c #040407",
"*X c #08080A",
"=X c #08080B",
"-X c #0F0D1E",
";X c #050506",
":X c #010102",
/* pixels */
"  . X X X X X X . . . X X X X X X o O + + O X O + + + + + + O @ ",
"X # # # # # # # # # # # # @ @ $ @ % & + + O O + + O O O O O o o ",
"# o o o o o X . . . . . X @ @ # * = = = - ; * + O o o o o O @ # ",
"o @ O O @ # X X X X : : > , < 1 2 3 3 3 3 4 5 6 @ # # # @ O @ o ",
"O + + + O # @ @ @ 7 8 4 4 4 4 9 0 0 0 0 q w e o o o o o @ o .   ",
"O O + O # # @ @ O r t 0 y u u i i 0 0 4 p a @ O O O @ # # .     ",
"o o @ # o o X . : s d f g h j k l z 0 x a   @ + + + O o .       ",
"# # @ # X o X X X c v h b n m M N B i 4 V   . O + + + # X       ",
". . . . . o @ @ C Z A S D F G H J K d 0 L P . @ + + O # # .     ",
"        . @ O # * I U Y T R E W Q j u 0 0 ! ~ . @ O @ @ # X .   ",
"  . . . o O + O ^ / b ( ) _ ` ' ] j [ 4 w V { . . . . . X # # X ",
"X # # # # @ O @ : } | (  ...X.o.O.+.@.< < X .             X o @ ",
"# o X . . . . X # #.$.%.&.*.=.-.;.:.@ % % O @ o X . . . X # # @ ",
"@ o .           . ~ >.,.] *.<.1.2.3.O + + O @ @ @ @ @ O @ X . X ",
"@ # # X . . .     4.5.6.<.*.*.7.8.9.0.O O o X o @ @ O + O o X X ",
". . X # # # # X . q.w.T *.*.*.e.r.t.y.< % @ X . . X X @ @ # # @ ",
"      . . . X # < +.u.<.*.*.*.i.p.a.s.d.@ @ # X . . X o o o o O ",
"            . f.g.h.j.*.*.*.*.*.7.k.l.z.e o f.# # # # # # # # @ ",
"    . . . X # # d.x.] *.*.*.*.*.c.v.b.n.m.M.X X o X o o o o o o ",
"  X # # # # N.B.+.V.<.*.*.*.*.*.i.p.C.Z.A.S.D.@ @ o @ O O O @ @ ",
". # @ o X .   F.G.D *.*.*.*.*.*.*.H.J.K.L.l L = % @ O + + + O # ",
"  . X # X X . B.G.D *.*.*.*.*.P.I.U.Y.T.R.E.L 7 o o O O O O @ @ ",
". X X # # # @ ^ W.b D Q.Q.!.~.^./.(.)._.`.'.].o # @ @ o o o o o ",
"@ @ # X X X @ 7 [./ {.}.}.|.h. X.XXXoXOXg.< +XX . X # # @ # # # ",
"O @ o X . . . X C < @X#XoX$X7 %XV 4 4 &X@ % @ o X X o o @ o X . ",
"o X # # # X . X f.f.< 4 t *X+ O : 4 3 7 O O @ @ @ @ @ @ @ o X . ",
"# X X X X # # # # @ * t t =X+ @ : 4 4 < # o o o O O @ o @ @ # # ",
"o @ @ X X o o o o @ * -X-X*XO o a 8 -X: o @ O O O o o X o @ o o ",
"# @ @ # @ @ # # # o o < &X;X@ # :XC ; +X# + + O @ # # # @ O O # ",
"o o o o O O o o o # # # # X X . . . . . X @ O o o o o o o O O o ",
"# # # # @ @ # # # o o o o X X X X X X X X o # # # # # # # @ # . ",
"X X X X X X X o @ X @ @ @ @ @ @ @ @ @ @ @ # . . X X X X X X .   "
};
