/* XPM */
static char *result[] = {
/* columns rows colors chars-per-pixel */
"32 32 140 2 ",
"   c #030303",
".  c #04070C",
"X  c #0E0E0E",
"o  c #000511",
"O  c #0C0F14",
"+  c #121212",
"@  c #1B1B1B",
"#  c #3D2816",
"$  c #001235",
"%  c #00143B",
"&  c #0D1E3D",
"*  c #0F203F",
"=  c #232323",
"-  c #292A2A",
";  c #333232",
":  c #493421",
">  c #4E3B2B",
",  c #55412D",
"<  c #5D4630",
"1  c #5B4835",
"2  c #65523F",
"3  c #001B4F",
"4  c #001D52",
"5  c #0F2143",
"6  c #0F254C",
"7  c #122342",
"8  c #1B2A45",
"9  c #152B4F",
"0  c #1F2E49",
"q  c #012057",
"w  c #0D2654",
"e  c #0B275A",
"r  c #0F2A5B",
"t  c #112B5B",
"y  c #17305D",
"u  c #1A325D",
"i  c #24334F",
"p  c #2A364E",
"a  c #2B394C",
"s  c #23385F",
"d  c #142F61",
"f  c #153061",
"g  c #1F3763",
"h  c #1F3865",
"j  c #243B62",
"k  c #3A444D",
"l  c #35425A",
"z  c #504F4F",
"x  c #474A52",
"c  c #53555A",
"v  c #55595F",
"b  c #5D5D5E",
"n  c #695642",
"m  c #715D48",
"M  c #76614A",
"N  c #545A66",
"B  c #5B5D62",
"V  c #5E6064",
"C  c #5E6571",
"Z  c #636464",
"A  c #62656A",
"S  c #676A6E",
"D  c #6D6D6E",
"F  c #716F6C",
"G  c #6E706F",
"H  c #74726E",
"J  c #78756F",
"K  c #616772",
"L  c #6B6E73",
"P  c #6E7172",
"I  c #747373",
"U  c #787671",
"Y  c #7B7875",
"T  c #73767B",
"R  c #76787D",
"E  c #7B7B7B",
"W  c #93906F",
"Q  c #9D966D",
"!  c #84817F",
"~  c #ACA271",
"^  c #6F7582",
"/  c #7C7E82",
"(  c #777E8A",
")  c #838384",
"_  c #8D8984",
"`  c #838589",
"'  c #85888E",
"]  c #8B8B8B",
"[  c #908E89",
"{  c #96928C",
"}  c #98948D",
"|  c #838B90",
" . c #8B8F96",
".. c #8D9094",
"X. c #939393",
"o. c #92959B",
"O. c #959D9E",
"+. c #9C9C9C",
"@. c #96A09F",
"#. c #A5A29E",
"$. c #9C9FA5",
"%. c #A3A3A4",
"&. c #ABA9A6",
"*. c #ACACAC",
"=. c #B1AEAC",
"-. c #B3B0AD",
";. c #B4B3B3",
":. c #B8B5B3",
">. c #BCBCBC",
",. c #D1BE9C",
"<. c #DDC9A6",
"1. c #D5C5AB",
"2. c #DDCBA9",
"3. c #C3C2BF",
"4. c #DCCEB5",
"5. c #DCCFB8",
"6. c #DED1B9",
"7. c #E6D3AF",
"8. c #E6D3B1",
"9. c #E3D4B9",
"0. c #EBDABD",
"q. c #F3DEB7",
"w. c #F6E2BD",
"e. c #C4C4C4",
"r. c #CAC7C2",
"t. c #CBC8C2",
"y. c #C7C7C8",
"u. c #C9C9C9",
"i. c #D4D1CD",
"p. c #D1D2D2",
"a. c #ECDCC1",
"s. c #F7E4C3",
"d. c #F8E6C5",
"f. c #F1E5CD",
"g. c #F6E9CE",
"h. c #F7EAD1",
"j. c #FBEDD2",
"k. c #E6E6E6",
"l. c gray93",
"z. c #F4F4F4",
/* pixels */
"                                        . .         .     X     ",
"                  X X + + X + + X + + + + +   X + @ + +         ",
"                @ D E F D I E I I E E I I A @ @ c V B c @       ",
"              X D k.k.+.+.k.k.*.*.k.k.;.>.;.E Z s y 7 8 z =     ",
"              + E l.z.@.+.z.z.:.;.z.z.>.e.e.;.' C e 3 % 8 c X   ",
"X   X X       + E z.z.+.+.z.z.%.;.z.z.>.>.e.p.e.R u 4 % 7 B X   ",
"              X Y k.k.+.+.k.k.@.;.l.l.>.e.u.p.e./ C y 3 5 B X   ",
"      X X     + D o.+.X.{ +.+.X.%.*.;.:.>.y.e.o.) ) K y e B X   ",
"    + Z Z @   + b U G H I ) ) H I _ ] ] Y Y ) >.y.:.E N j c X   ",
"  X Z o.o.Z X   = Z < , n 6.4., 2 5.f.6.2 # > :.p.>.I - v @     ",
"  X G @.@.G +   + H ,.9.0.h.0.M 1.j.j.h.1.< : -.u.u.I @ z X     ",
"  X D @.O.D +   + J 7.g.t.t.h.a.d.h.t.t.h.1.1 =.u.u.I + X       ",
"  X D @.O.D X   + H 7.g.3.3.h.j.d.h.3.3.j.0.m -.u.y.I +         ",
"  X D @.O.G X   X J 7.g.3.3.j.w.w.g.3.3.h.s.<.r.p.3.I +         ",
"  + D @.@.D X   X J 8.d.t.t.h.j.j.h.t.t.h.s.8.i.p.;.A +         ",
"  X D @.@.D X   X H <.w.g.h.j.j.d.d.g.h.j.9.} >.>.E @           ",
"  X D @.@.D X   + Z _ 2.7.0.d.s.w.w.0.0.9.{ ) >.>.E @ X .       ",
"  @ P @.@.D @     @ I #.[ } 9.0.q.9.} ] &.%.X.%.$. .A b @ +     ",
"X c L | | L b +   + ] ] %.*.:.=.=.:.*.&.%.%.X.' j d f B V b +   ",
"+ V a a a a S + + = X.` >.r.u.%.%.y.y.y.u.*.X.^ r 4 3 & 8 Z +   ",
"X b D Q ~ P / ; Y o.X.! ) [ e.e.y.y.X.X.e.*.' g q 4 % $ & b +   ",
"  @ c k W s h ( O.%.%.) ]  .] ] *.&.$.%.*.&.$.d 4 % $ $ & V +   ",
"    X $ 9 t f d s L &.*.*.=.*.%.%._ +.+.+.+.o.d 4 % $ $ * B +   ",
"        O N ^ 6 o = *.y.e.e.3.+...X.>.3.>.*.| d 4 % $ $ * B +   ",
"          + + .   X I ] ] ] ] $.) E ) ) ] %.' g 4 % $ $ * b +   ",
"                  = V / ....%.%.` / S S I +.) ^ t $ $ $ * b X   ",
"                + R 0 5 7 l ' L p 7 & & 8 A ; T t % $ $ & B +   ",
"                + ` i & i / = @ x 8 5 7 8 B = L j w 3 & 8 b +   ",
"                = ) ] ` $.} +   - E ` ` ) S @ b L L L S V b +   ",
"              + I ! ! ! ) ) + X Z E ) E ! b X @ Z A D b @ +     ",
"                @ + + + + +   . + + + + + X     X + X X         ",
"                    .   .     .                                 "
};
