/* XPM */
static char *result[] = {
/* columns rows colors chars-per-pixel */
"32 32 143 2 ",
"   c #030303",
".  c #04070C",
"X  c #0E0E0E",
"o  c #000511",
"O  c #0C0F14",
"+  c #121212",
"@  c #1B1B1B",
"#  c #3D2816",
"$  c #001235",
"%  c #00143B",
"&  c #0D1E3D",
"*  c #0F203F",
"=  c #232323",
"-  c #292A2A",
";  c #333232",
":  c #493421",
">  c #4E3B2B",
",  c #55412D",
"<  c #5D4630",
"1  c #5B4835",
"2  c #65523F",
"3  c #001B4F",
"4  c #001D52",
"5  c #0F2143",
"6  c #0F254C",
"7  c #122342",
"8  c #1B2A45",
"9  c #152B4F",
"0  c #1F2E49",
"q  c #0D2654",
"w  c #0B275A",
"e  c #0F2A5B",
"r  c #112B5B",
"t  c #17305D",
"y  c #1A325D",
"u  c #24334F",
"i  c #2A364E",
"p  c #2B394C",
"a  c #23385F",
"s  c #142F61",
"d  c #153061",
"f  c #1F3763",
"g  c #1F3865",
"h  c #243B62",
"j  c #3A444D",
"k  c #35425A",
"l  c #504F4F",
"z  c #474A52",
"x  c #494D54",
"c  c #53555A",
"v  c #55595F",
"b  c #5D5D5E",
"n  c #695642",
"m  c #715D48",
"M  c #76614A",
"N  c #545A66",
"B  c #5B5D62",
"V  c #5E6064",
"C  c #5E6571",
"Z  c #636464",
"A  c #62656A",
"S  c #676A6E",
"D  c #6D6D6E",
"F  c #716F6C",
"G  c #6E706F",
"H  c #74726E",
"J  c #78756F",
"K  c #616772",
"L  c #6B6E73",
"P  c #6E7172",
"I  c #747373",
"U  c #787671",
"Y  c #7B7875",
"T  c #73767B",
"R  c #76787D",
"E  c #7B7B7B",
"W  c #93906F",
"Q  c #9D966D",
"!  c #84817F",
"~  c #ACA271",
"^  c #6F7582",
"/  c #707783",
"(  c #757A83",
")  c #7C7E82",
"_  c #777E8A",
"`  c #838384",
"'  c #8D8984",
"]  c #838589",
"[  c #85888E",
"{  c #8B8B8B",
"}  c #908E89",
"|  c #98948D",
" . c #838B90",
".. c #8B8F96",
"X. c #8D9094",
"o. c #939393",
"O. c #92959B",
"+. c #959D9E",
"@. c #9C9C9C",
"#. c #96A09F",
"$. c #A5A29E",
"%. c #9C9FA5",
"&. c #A3A3A4",
"*. c #ABA9A6",
"=. c #ACACAC",
"-. c #B1AEAC",
";. c #B3B0AD",
":. c #B4B3B3",
">. c #B8B5B3",
",. c #BCBCBC",
"<. c #D1BE9C",
"1. c #D9C7A5",
"2. c #DDC9A6",
"3. c #D5C5AB",
"4. c #DDCBA9",
"5. c #C3C2BF",
"6. c #DCCEB5",
"7. c #DCCFB8",
"8. c #DED1B9",
"9. c #E6D3AF",
"0. c #E6D3B1",
"q. c #E3D4B9",
"w. c #EBDABD",
"e. c #F3DEB7",
"r. c #F5DFB8",
"t. c #F6E2BD",
"y. c #C4C4C4",
"u. c #CAC7C2",
"i. c #CBC8C2",
"p. c #C7C7C8",
"a. c #C9C9C9",
"s. c #D4D1CD",
"d. c #D1D2D2",
"f. c #ECDCC1",
"g. c #F7E4C3",
"h. c #F8E6C5",
"j. c #F1E5CD",
"k. c #F6E9CE",
"l. c #F7EAD1",
"z. c #FBEDD2",
"x. c #E6E6E6",
"c. c gray93",
"v. c #F4F4F4",
/* pixels */
"    X   .       X                                               ",
"        + @ + @   . + @ + @ + + O + + X + + X                   ",
"      @ c B Z c @ @ A L H Y Y L H R Y D D Y D @                 ",
"  . @ x 8 7 r a A E :.,.:.x.x.:.=.x.x.@.@.c.d.D .               ",
"  X c 8 $ 4 w C ] ,.y.5.,.v.v.:.:.v.v.@.@.v.v.R @       . X     ",
"  X b 5 % 4 t R y.d.y.5.,.v.v.:.&.v.v.$.@.v.v.E +             X ",
"  X B 7 4 r C ) 5.d.p.y.,.c.c.:.%.x.x.@.@.x.x.Y X               ",
"  X B r t K ! ` o.y.p.,.>.:.=.&.o.@.@.{ o.@.O.F X     + +       ",
"  . c a N E >.a.,.` Y Y { { ' U H ` ` I F H Y b +   @ Z Z @     ",
"    @ c - I 5.d.>.> # n 8.j.7.2 , 6.q.n , 1 Z @   + Z O.O.V X   ",
"    + l @ I p.a.;.: < 3.l.z.z.3.M f.l.q.0.<.H +   + H #.+.D X   ",
"      . + I a.a.=.1 3.l.i.i.z.h.f.k.i.i.z.0.J O   + D +.#.D X   ",
"        + U p.a.:.m w.l.y.5.k.h.z.l.y.5.k.9.J +   X D #.#.D X   ",
"        + I y.a.u.2.g.l.5.5.k.t.t.l.5.5.k.9.J X   X D #.+.D +   ",
"        + Z >.d.s.0.g.z.u.i.l.z.z.z.i.i.k.9.H X   X D #.#.D +   ",
"          @ E y.,.| 6.z.l.k.h.h.z.z.k.k.e.1.J X   X D +.#.D X   ",
"        X @ ( ,.,.` | q.w.w.t.t.h.h.w.0.4.' b +   X D +.#.D X   ",
"    + @ b K ..%.&.o.&.*.{ | q.w.r.q.| ' $.Y @     @ P #.#.G +   ",
"  + b Z A t s h [ O.=.@.*.=.>.;.;.>.=.&.{ { +   X b P  .[ L b X ",
"  + b 0 3 % 4 e ( o.=.a.y.y.a.&.&.a.a.,.] } - + + A p p p i V + ",
"  + Z * $ % 4 4 h  .-.p.o.o.y.y.y.,.{ ` E O.O.Y ; ) P ~ Q G b X ",
"  + b * $ $ % 4 s O.=.=.&.@.=.=.{ { o.{ ' &.&.%._ g a W j c @   ",
"  + b * $ $ % 4 s O.@.@.@.@.{ &.&.=.=.=.=.=.L y d d r 9 $ O     ",
"  + B * $ $ % 4 e [ =.,.y.,.o.o.@.y.y.y.y.;.= o 6 / v O         ",
"  X b & $ $ % 4 f  .&.[ ` ` E ` &.{ { { [ I +   . + X           ",
"  X b * $ $ % e ^ ` @.I S D ( ] &.&.X.X.) Z @                   ",
"  + B * $ $ % r T ; A 8 & & * u L ] k 8 * 0 R +                 ",
"  X B 0 & 3 q h L = B 0 3 * ; z + - ( u * u ] +                 ",
"  + b Z D D D L b @ S ` ) ] E -   + @.O.] ] ` =                 ",
"    X @ b D D b @ X b ! ` ! ` Z X + ` ' ! ! ` I +   .           ",
"        X X X X     + + + + + +     + + @ + + @                 ",
"                                  .                             "
};
