/* XPM */
static char *result[] = {
/* columns rows colors chars-per-pixel */
"32 32 146 2 ",
"   c #030303",
".  c #0E0E0E",
"X  c #0C0E12",
"o  c #121212",
"O  c #141519",
"+  c #1B1B1B",
"@  c #20201F",
"#  c #3D2816",
"$  c #021233",
"%  c #0B1A35",
"&  c #00143A",
"*  c #0C1D3D",
"=  c #0F203F",
"-  c #12213C",
";  c #242424",
":  c #232528",
">  c #2B2C2B",
",  c #493421",
"<  c #4E3B2B",
"1  c #55412D",
"2  c #5D4630",
"3  c #5B4835",
"4  c #65523F",
"5  c #001B4F",
"6  c #001D52",
"7  c #0F2143",
"8  c #122241",
"9  c #192844",
"0  c #1F2E49",
"q  c #0B275A",
"w  c #112B5A",
"e  c #17305D",
"r  c #1C345E",
"t  c #202F4A",
"y  c #24334D",
"u  c #2B374E",
"i  c #2B384C",
"p  c #20365A",
"a  c #243A5F",
"s  c #122E60",
"d  c #153061",
"f  c #1F3660",
"g  c #233A65",
"h  c #223B68",
"j  c #3A444C",
"k  c #31476E",
"l  c #504F4F",
"z  c #494D54",
"x  c #4E5259",
"c  c gray33",
"v  c #53555A",
"b  c #5D5D5E",
"n  c #695642",
"m  c #715D48",
"M  c #76614A",
"N  c #60605F",
"B  c #545A66",
"V  c #5B5E63",
"C  c #5E6064",
"Z  c #5E626A",
"A  c #5E6571",
"S  c #646465",
"D  c #62656B",
"F  c #676A6E",
"G  c #6D6D6D",
"H  c #716F6C",
"J  c #6E706F",
"K  c #74726E",
"L  c #78756F",
"P  c #616772",
"I  c #6C6E72",
"U  c #6E7173",
"Y  c #747373",
"T  c #787671",
"R  c #7B7875",
"E  c #70747B",
"W  c #75787E",
"Q  c #7B7B7B",
"!  c #92906E",
"~  c #9D966D",
"^  c #84817F",
"/  c #ACA271",
"(  c #747B87",
")  c #7D7F83",
"_  c #7E8084",
"`  c #7B8089",
"'  c #838383",
"]  c #8A8885",
"[  c #84868A",
"{  c #87898D",
"}  c #8B8B8B",
"|  c #918C84",
" . c #908E89",
".. c #96928C",
"X. c #98948D",
"o. c #858C92",
"O. c #898C92",
"+. c #878E9A",
"@. c #8E9196",
"#. c #939393",
"$. c #92959A",
"%. c #959D9D",
"&. c #9B9B9B",
"*. c #96A09F",
"=. c #A2A19E",
"-. c #979AA0",
";. c #9A9DA3",
":. c #A3A3A3",
">. c #ABA9A6",
",. c #ABABAB",
"<. c #B1AEAC",
"1. c #B3B0AD",
"2. c #B4B3B3",
"3. c #B8B5B3",
"4. c #BCBCBC",
"5. c #D1BE9C",
"6. c #D9C7A5",
"7. c #DDC9A6",
"8. c #D5C5AB",
"9. c #C3C2BF",
"0. c #DCCEB5",
"q. c #DCCFB8",
"w. c #DED1B9",
"e. c #E6D3AF",
"r. c #E6D3B1",
"t. c #E3D4B9",
"y. c #EBDABD",
"u. c #F3DEB7",
"i. c #F5DFB8",
"p. c #F6E2BD",
"a. c #C4C4C4",
"s. c #CBC8C2",
"d. c #C7C7C8",
"f. c #C9C9C9",
"g. c #D4D1CD",
"h. c #D1D2D2",
"j. c #ECDCC1",
"k. c #F7E4C3",
"l. c #F8E6C5",
"z. c #F1E5CD",
"x. c #F6E9CE",
"c. c #F7EAD1",
"v. c #FBEDD2",
"b. c #E6E6E6",
"n. c gray93",
"m. c #F4F4F4",
/* pixels */
"      .       .           .                                     ",
"        o o O o .   O o o o o o X o o . o . .                   ",
"      + v C C v + @ S Y Y Q Q U G Q T I G Q G +                 ",
"    ; z 9 8 w g Z Q 3.4.2.b.b.1.,.b.b.&.$.b.b.G                 ",
"  . v 9 & 6 q A [ 3.a.4.4.m.m.2.3.m.m.&.&.m.m.Q +         .     ",
"  . b 8 & 6 e W a.h.d.9.4.m.m.2.:.m.m.=.=.m.n.Q o             . ",
"  . V 8 6 w Z ' a.h.f.a.4.n.n.2.=.b.b.&.&.b.b.T o               ",
"  . V w e P ) ' $.a.d.4.2.1.<.:.#.&.&.O.@.&.&.G .     o o       ",
"    v g B Q 3.d.9.' Y R } } ] T K ' ] K H K R N o   + S S +     ",
"    + v > Y 9.h.3.< # 4 w.z.0.4 1 0.q.n 1 3 S +   o S $.$.C .   ",
"    o l + Y d.f.1., 2 8.c.v.v.8.M j.c.t.t.5.K o   o J *.*.G .   ",
"        o E f.f.,.3 8.v.s.s.c.l.j.x.s.s.v.e.L X   o G *.%.G .   ",
"        o T d.f.2.m y.c.a.9.x.l.v.c.9.9.x.e.L o   . G *.*.J .   ",
"        O T 4.h.s.7.k.x.9.9.x.p.p.v.9.9.x.e.L .   . G *.%.G o   ",
"        o S 2.h.g.r.l.v.s.s.x.v.v.c.s.s.x.e.L .   . G *.*.G o   ",
"          + Q 9.4.X.0.v.c.v.l.l.v.v.c.x.u.6.K .   . G *.%.G .   ",
"        . + R 4.4.' ..t.y.y.k.i.l.k.y.e.7.| G .   . J *.*.G .   ",
"      o b Y &.<.:.#.:.>.} ..t.u.p.t... .=.' G +   + U *.*.J o   ",
"      + G ' :.#.#.#.:.:.,.,.2.<.1.3.,.:.{ &.^ S ; V I { { I b . ",
"    o c Q :.,.$.#.#.,.d.d.d.d.:.:.f.d.4.' :.:.} R Y u i i u C o ",
"      > $.,.;.-.:.&.,.d.#. .d.d.a.9.} ' Q &.>.&.:.@.J / ~ J b . ",
"  . @ G :.O.g g O.>.>.,.:.:.,.,.} ] @.} ' :.:.%.+.h a ! j v O   ",
"  . N ^ :.O.h f o.:.&.&.&.&.{ :.:.,.,.,.,.,._ k d s e r $ o     ",
"  o G O.%.$.+.-.:.&.>.4.a.4.#. .&.a.d.a.d.4.#.( k ` D x X       ",
"  . G ' y 8 y ( :.&.:.{ ' ' ) ' :. .} ] ' ' @.=.:.{ + .         ",
"  . G ) 7 $ & g [ ' @.U F U } #.:.#.#.*.' F U ^ ' :             ",
"  o G ) - $ & w E : - * * 0 $.=.F @ > { y 7 9 C @               ",
"  . G ) - - 5 p E O % 7 - y $.G o   O [ y = t Z o               ",
"  o b S y S I I N + S ' ' [ ' >     o #.} ' { } ;               ",
"    X + v G F b O . N Q ' ' ' S .   . Y ' ^ ' ' S . .           ",
"        o . . .     . O o o o o       o O o o O o               ",
"                                                                "
};
