/* XPM */
static char *result[] = {
/* columns rows colors chars-per-pixel */
"32 32 37 1 ",
"  c #05263B",
". c #0A771D",
"X c #0A4164",
"o c #E23D10",
"O c #0C8221",
"+ c #0BA927",
"@ c #055888",
"# c #0570B2",
"$ c #0471B4",
"% c #0673B6",
"& c #0673B7",
"* c #0975B9",
"= c #0877BB",
"- c #0A76BA",
"; c #0D77BA",
": c #0E78BB",
"> c #0979BD",
", c #0A7ABF",
"< c #0E78BC",
"1 c #0F78BC",
"2 c #0F7ABE",
"3 c #0B7CBC",
"4 c #1179BD",
"5 c #107ABE",
"6 c #117ABE",
"7 c #0960CE",
"8 c #0B7CC1",
"9 c #0C7CC1",
"0 c #0C7FC5",
"q c #09A095",
"w c #0EBBAE",
"e c #16D49D",
"r c #1381C2",
"t c #118BD4",
"y c #128CD5",
"u c #1492DC",
"i c #1694DE",
/* pixels */
"                                ",
"   6XXX XXXXX yr33333u @@@@XXX* ",
"  <XXXX XXXXX >r33333u @@@XXXX* ",
" 6XXXXX XXXXX %r33333u 2XXXXXX* ",
" XXXXXX XXXXX =r33333u XXXXXX5- ",
" 111111 1111; tuuuuuut ;1111111 ",
"         +++                    ",
" XXX:#  +++++ &&& < @@@@@92  XX ",
" XXXX +++++++ XXXX     XX     X ",
" XXXX ++++++++    +++++  +++++  ",
" *** +++++++++++++++++++++++++  ",
"     ++++++++++++++++++++++++ X ",
" u 4 ++++++++++++++++++++++++ X ",
" u X +++++++++++++++++++++++ @@ ",
" u X +++++++++++++++++++++++ @@ ",
" u   +++++++++++++++++++++++ @@ ",
"    ++++++++++++eeee++++++++    ",
" XXX +++++++++eeeeeeee++++++ 88 ",
" XXX +++++++++eeeeeeeee+++++ $$ ",
" XXXX +++++++++eeeeeeeee++++ XX ",
"      ++++++++wweeeeeeee++++ XX ",
" 33 @@ ++++++w7owwwweeeee++ 111 ",
" 33 X +++++++wwww7owweeee+      ",
" 33  +++++++OOwqqwwwweeee+ @@@@ ",
" 33 ++++++++OO....OOO.eee+ @XX6 ",
" 33 +++++++++++..OOO.eeeO+ XX<  ",
" 33 ++++++++++++OOOOeeeO+ XX6   ",
" 33    ++++++++O..O+eeO++       ",
"  3 @XX  +++++++OOO++ee++ u33i0 ",
" ,3 @@XX@  +++++   +++++  u3333 ",
" @, @@@XX 1     XXX     @ u3333 ",
"                                "
};
