/* XPM */
static char *result[] = {
/* columns rows colors chars-per-pixel */
"32 32 43 1 ",
"  c #3B0303",
". c #05263B",
"X c #750000",
"o c #0A4164",
"O c #A80000",
"+ c #055888",
"@ c #0570B2",
"# c #0471B4",
"$ c #0572B5",
"% c #0673B6",
"& c #0673B7",
"* c #0975B9",
"= c #0877BB",
"- c #0A76BA",
"; c #0D77BA",
": c #0E78BB",
"> c #0979BD",
", c #0979BE",
"< c #0A7ABF",
"1 c #0E78BC",
"2 c #0F78BC",
"3 c #0F79BC",
"4 c #0E79BD",
"5 c #0F7ABE",
"6 c #0B7CBC",
"7 c #1179BD",
"8 c #107ABE",
"9 c #117ABE",
"0 c #127ABF",
"q c #137ABF",
"w c #127DBF",
"e c #0B7CC1",
"r c #0C7CC1",
"t c #0F7EC3",
"y c #0D7FC4",
"u c #0C7FC5",
"i c #0E7FC4",
"p c #1381C2",
"a c #118BD4",
"s c #128CD5",
"d c #128ED6",
"f c #1492DC",
"g c #1694DE",
/* pixels */
"................................",
"...9ooo.ooooo.sp66666f.++++ooo*.",
"..1oooo.ooooo.>p66666f.+++oooo*.",
".9ooooo.ooooo.%p66666f.5oooooo*.",
".oooooo.ooooo.=p66666f.oooooo8-.",
".222222.2222;.affffffa.;2222222.",
"................................",
".ooo:@;oXooo3&&&X.1.++++Xr5..oo.",
".oooo.2oOoooooooOoo.ooooOoo..oo.",
".oooo.2XOoooooooOXo.ooooOoo-.oo.",
".***o.2OOoooooooOOo.oooXOoo8.oo.",
".......OOXoooooXOOo.oooOOXoo.oo.",
".f.7qqqOOOoooooOOO.9o2.OOO,,.oo.",
".f.oo0XOOOXoooXOOOX.o2XOOOX6.++.",
".f.ooXOOOOOX.XOOOOOX.XOOOOOX.++.",
".f.o..     ...     ...     ..++.",
".....oooooooo.ooioooo:.p6666....",
".oooooo-Xofoo++oXwoo9%odXfff.ee.",
".oooooo8Oofoo++oOt+o9%ooOoooo##.",
".oooooooOofoo++oOoyo9%o:Ooooooo.",
"........OXfoo+ooOooo9%oXOoooooo.",
".66.+++XOOfoooooOXe4:$oOOX22222.",
".66.oooOOOfoo+oXOOoooooOOO......",
".66.+oXOOOXoooXOOOXoo5XOOOX+.++.",
".66.+XOOOOOXoXOOOOOXoXOOOOOX.o9.",
".66...     ...     ...     ..1..",
".66.ooooo.foooo..ooooooooooo9...",
".66.ooooo.......................",
"..6.+oooo.2-....-oooo++++.f66gu.",
".<6.++oo+.2oooooooooooo++.f6666.",
".+<.+++oo.2oooooooooooo++.f6666.",
"................................"
};
