/* XPM */
static char *result[] = {
/* columns rows colors chars-per-pixel */
"32 32 32 1 ",
"  c #05263B",
". c #0A4164",
"X c #0BA927",
"o c #055888",
"O c #0570B2",
"+ c #0471B4",
"@ c #0673B6",
"# c #0673B7",
"$ c #0975B9",
"% c #0877BB",
"& c #0A76BA",
"* c #0D77BA",
"= c #0E78BB",
"- c #0979BD",
"; c #0A7ABF",
": c #0E78BC",
"> c #0F78BC",
", c #0F7ABE",
"< c #0B7CBC",
"1 c #1179BD",
"2 c #107ABE",
"3 c #117ABE",
"4 c #0B7CC1",
"5 c #0C7CC1",
"6 c #0C7FC5",
"7 c #16D49D",
"8 c #00ECA8",
"9 c #1381C2",
"0 c #118BD4",
"q c #128CD5",
"w c #1492DC",
"e c #1694DE",
/* pixels */
"                                ",
"   3... ..... q9<<<<<w oooo...$ ",
"  :.... ..... -9<<<<<w ooo....$ ",
" 3..... ..... @9<<<<<w ,......$ ",
" ...... ....8 %9<<<<<w ......2& ",
" >>>>>> >>>>* 0wwww8w0 *>>>>>>> ",
"         777                    ",
" ...=O  78877 ### : oo8oo5, 8.. ",
" .... 7788XX7 .8..     ..     . ",
" .... 788XXXX7    77777  77777  ",
" $$$ 778XXXXXX7777XXXXX777X777  ",
"     78XXXXXXXXXXXXXXXXXXXX77 . ",
" w 1 78XXXXXXXXXXXXXXXXXXXX77 . ",
" w . 778XXXXXXXXXXXXXXXXXXX7 oo ",
" w . 788XXXXXXXXXXXXXXXXXX87 oo ",
" w   788XXXXXXXXXXXXXXXXXX78 o8 ",
"    7788XXXXXXXXXXXXXXXXXX88    ",
" ... 778XXXXXXXXXXXXXXXXXX88 44 ",
" ... 77XXXXXXXXXXXXXXXXXXX87 8+ ",
" .... 77XXXXXXXXXXXXXXXXXX87 .. ",
"      77XXXXXXXXXXXXXXXXX887 .. ",
" << oo 77XXXXXXXXXXXXXXXX87 >>> ",
" << . 777XXXXXXXXXXXXXXXX7      ",
" <<  77XXXXXXXXXXXXXXXXX87 oooo ",
" << 77XXXXXXXXXXXXXXXXXX87 o..3 ",
" << 7XXXXXXXXXXXXXXXXXX887 ..:  ",
" << 77777XXXX88XXXXXXXX87 ..3   ",
" <<    7778888888XXXXX887       ",
"  < o..  7777877777XXXX87 w<<e6 ",
" ;< oo..o  77777   77777  w<<<< ",
" o; ooo.. >     ...     o w<<<< ",
"                                "
};
