/* XPM */
static char *result[] = {
/* columns rows colors chars-per-pixel */
"32 32 7 1 ",
"  c #2E1303",
". c #351705",
"X c #391703",
"o c #481E04",
"O c #52250A",
"+ c #552B11",
"@ c #612C0C",
/* pixels */
".........   ..      ............",
".ooXX.OOOO XXXX. @OOO.O@@@.oooo.",
".oooX.+++O XXoX. @@@O.O@@@.oooo.",
".oooX.@+OO.Xooo. @@@O.O@@@.oooo.",
".oooX.@@OO.oooo..@@@@.O@@@.oooX.",
".oooX.@@@O.oooo..@@@@.O@@@.oooo.",
".oooX.@@@O.oooo..@@@@.O@@@.oooo.",
".oooo.@@@@ oooo..@@@@.O@@@.oooo.",
".oooo.@@@@  .....@@@@ @@@@.Xooo.",
".oooo.@@@@ @OOO..@@@@ @@@@.Xooo.",
".oooo.@@@@ @OO@..@@@@ @@@@.Xooo.",
".oooo.O@@@ @OO@..@@@@ @@@@.Xooo.",
".oooo.O@@@ @@O@..@@@@ @@@@.Xooo.",
".oooo.O@@@.@@O@.....  @@@@.oooo.",
".oooo.O@@@.@@O@..oooX @@@@.oooo.",
".oooo.O@@@.@@O@..oooo.@@@@.oooo.",
".oooo O@@+.@@@@..oooo.@@@@.oooo.",
".oooo   ...@@@@..oooo.@@@@ oooX.",
".oooo XXoo.@@@@..oooo.@@@O ooXX.",
" oooo.Xooo.@@@@..oooo.@@@O  ....",
" oooo.Xooo.@@@@..oooo.@@@O O@@O.",
"  ....oooo.@@@@..oooo.@@@O @@@O.",
" O@@@ oooo.@@@@..oooo @@@O.@@@O.",
".O@@@ oooo.@@@@..oooo @@@O.@@@@.",
".O@@@ oooo.@@@@..oooo   ...@@@@.",
".@@@@ oooo.O@@@..oooo O@@@.@@@@.",
".@@@@.oooo.O@@@..oooo O@@@.@@@@.",
".@@@O.oooo.O@@@..oooo.O@@@.@@@@.",
".@@@O.oooo.OO@@..oooX.@@@@.@@@O.",
".@@@O.oooo.OOO@..oooX.@@@@.@@@O.",
".O@@O.oooo.OOOO..oXXX.@@@@.@@OO.",
"................................"
};
