/* XPM */
static char *result[] = {
/* columns rows colors chars-per-pixel */
"32 32 7 1 ",
"  c #2E1303",
". c #351705",
"X c #391703",
"o c #481E04",
"O c #52250A",
"+ c #552B11",
"@ c #612C0C",
/* pixels */
".........    ...................",
"OO@@@@@OOO oooooooooooooooooooo ",
"O@@@@@@@@@.oooooooooooooooooooo ",
"O@@@@@@@@@.oooooooooooooooooooX ",
"OOOOO@@@@@.ooooooooooooooXXXXXX ",
"......    ...   ............... ",
" ooooooooooXXX OOOOOO@@@@@@@@+OO",
" ooooooooooooX @@@@@@@@@@@@@++OO",
" ooooooooooooo.@@@@@@@@@@@@OO+OO",
" ooooooooooooo.+@@@@@@@@@OOOOOOO",
"..   ..............      ....   ",
"OOO OOO@@@@@@@@@@@@@@@@ ooooXXX ",
"OOO @@@@@@@@@@@@@@@@OOO.oooooXX.",
"OOO @@@@@@@@@@@@OOOOOOO.ooooooX.",
"OO@ @@@@@@@@@@@@@@@@@@O.oooooXX ",
"     .......................... ",
"   .........................    ",
" ooooooooooooooooo.@@@@@@@@@@@@O",
" ooooooooooooooooo.@@@@@@@@@@@OO",
" ooooooooooooooooo.@@@@@@@@@@@OO",
" ooooooooooooooooX @@@@@@@@@OOOO",
" ....     .......       ....... ",
"@@@@OOO @@@@@@@@@@@@@@@@OOOOOOO ",
"@@@@@@@ @@@@@@@@@@@@@@@@@@@@@@@ ",
"@@@@@@@.@@@@@@@@@@@@@@@@@@@@@@@ ",
"@@@@@@@.OOOOOO@@@@@@@@@@@@@@@@@ ",
"  ........     .................",
" @@@@@@@@@@O ooooooXXXXXoooooooo",
" @@@@@@@@@@@.ooooooooooooooooooo",
" O@@@@@@@@@@.ooooooooooooooooooo",
" OOO@@@@@OOO.XXooooooooooooXoooo",
" ..............................."
};
